<?xml version="1.0" encoding="UTF-8" standalone="no"?>
<svg
   width="512"
   height="408"
   version="1.1"
   id="svg871"
   sodipodi:docname="logo_Sechenov.svg"
   inkscape:version="1.2.1 (9c6d41e410, 2022-07-14)"
   xmlns:inkscape="http://www.inkscape.org/namespaces/inkscape"
   xmlns:sodipodi="http://sodipodi.sourceforge.net/DTD/sodipodi-0.dtd"
   xmlns="http://www.w3.org/2000/svg"
   xmlns:svg="http://www.w3.org/2000/svg">
  <sodipodi:namedview
     id="namedview873"
     pagecolor="#ffffff"
     bordercolor="#666666"
     borderopacity="1.0"
     inkscape:showpageshadow="2"
     inkscape:pageopacity="0.0"
     inkscape:pagecheckerboard="0"
     inkscape:deskcolor="#d1d1d1"
     showgrid="false"
     inkscape:zoom="0.72790404"
     inkscape:cx="10.99046"
     inkscape:cy="462.28621"
     inkscape:window-width="1920"
     inkscape:window-height="1001"
     inkscape:window-x="1911"
     inkscape:window-y="-9"
     inkscape:window-maximized="1"
     inkscape:current-layer="svg871" />
  <defs
     id="defs865">
    <linearGradient
       id="bs-logo-a"
       x1="76.079"
       x2="523.48"
       y1="10.798"
       y2="365.945"
       gradientUnits="userSpaceOnUse">
      <stop
         stop-color="#9013fe"
         id="stop840" />
      <stop
         offset="1"
         stop-color="#6610f2"
         id="stop842" />
    </linearGradient>
    <linearGradient
       id="bs-logo-b"
       x1="193.508"
       x2="293.514"
       y1="109.74"
       y2="278.872"
       gradientUnits="userSpaceOnUse">
      <stop
         stop-color="#fff"
         id="stop845" />
      <stop
         offset="1"
         stop-color="#f1e5fc"
         id="stop847" />
    </linearGradient>
    <filter
       id="bs-logo-c"
       width="197"
       height="249"
       x="161.901"
       y="83.457"
       color-interpolation-filters="sRGB"
       filterUnits="userSpaceOnUse">
      <feFlood
         flood-opacity="0"
         result="BackgroundImageFix"
         id="feFlood850" />
      <feColorMatrix
         in="SourceAlpha"
         values="0 0 0 0 0 0 0 0 0 0 0 0 0 0 0 0 0 0 127 0"
         id="feColorMatrix852" />
      <feOffset
         dy="4"
         id="feOffset854" />
      <feGaussianBlur
         stdDeviation="8"
         id="feGaussianBlur856" />
      <feColorMatrix
         values="0 0 0 0 0 0 0 0 0 0 0 0 0 0 0 0 0 0 0.15 0"
         id="feColorMatrix858" />
      <feBlend
         in2="BackgroundImageFix"
         result="effect1_dropShadow"
         id="feBlend860" />
      <feBlend
         in="SourceGraphic"
         in2="effect1_dropShadow"
         result="shape"
         id="feBlend862" />
    </filter>
    <clipPath
       clipPathUnits="userSpaceOnUse"
       id="clipPath381">
      <path
         d="m 3584.2,2875.27 c -16.67,-13.29 -22.46,-18.67 -27.6,-27.77 -8.64,-15.29 -9.7,-30.9 -10.02,-36.59 -0.39,-6.6 -0.7,-12.01 1.25,-18.93 2.74,-9.69 6.66,-10.76 11.29,-22.7 2.49,-6.45 3.42,-11.45 5.01,-20.17 1.98,-10.86 2.98,-16.27 2.51,-22.74 -0.46,-6.45 -1.46,-19.83 -11.28,-27.75 -5.44,-4.41 -11.29,-5.22 -18.81,-6.32 -9.48,-1.34 -18.28,-0.65 -27.6,1.26 -24.16,5.03 -25.12,12.88 -43.9,15.16 -1.31,0.16 -10.48,-0.31 -28.82,-1.28 -17.94,-0.9 -23.33,-1.44 -30.11,-3.78 -1.8,-0.63 -9.59,-3.41 -20.05,-11.36 -17.21,-13.07 -18.13,-22.2 -38.89,-45.41 -8.01,-8.94 -13.46,-14.98 -22.57,-21.46 -8.02,-5.72 -17.9,-12.76 -32.61,-15.13 -17.96,-2.94 -32.36,2.84 -37.61,5.03 -8.02,3.35 -14.97,8.54 -28.85,18.92 -14.36,10.76 -14.98,12.99 -22.56,16.43 -4.29,1.94 -15.95,7.06 -30.09,5.03 -2.03,-0.28 -4.98,-0.84 -25.09,-10.1 -19.92,-9.17 -21.55,-10.7 -27.59,-11.36 -3.03,-0.31 -15.81,-1.68 -26.34,6.32 -7.29,5.54 -9.98,12.92 -12.53,20.21 -5.35,15.23 -2.33,20.95 -5.02,44.16 -2.07,17.71 -3.25,26.93 -10.03,36.56 -7.17,10.23 -16.75,15.36 -18.82,16.42 -13.4,6.95 -18.68,2.03 -30.09,8.82 -1.55,0.94 -14.31,8.79 -17.55,22.71 -1.92,8.26 0.97,12.33 2.49,22.74 0.56,3.62 3.54,25.67 -5,41.63 -4.95,9.2 -18.82,16.36 -46.41,30.28 -25.85,13.07 -25.49,10.79 -32.59,16.42 -16.09,12.69 -23.68,28.86 -32.61,47.91 -6.8,14.48 -10.18,21.74 -11.29,32.81 -1.85,18.58 4.03,33.03 7.52,41.66 4.98,12.23 10.5,25.77 23.83,35.31 8.6,6.16 14.7,6.54 21.32,15.14 2.25,2.94 8.13,10.6 7.53,20.2 -0.8,12.36 -11.94,20.52 -20.06,26.5 -16.53,12.1 -22.71,7.44 -33.87,17.67 -13.49,12.38 -15.84,29.71 -16.29,34.06 -1.65,15.51 4.91,27.9 11.28,40.38 7.59,14.88 11.47,14.7 15.05,26.49 3,9.88 2.84,18.48 2.51,31.55 -0.35,13.49 -1.71,15.27 -2.51,27.75 -1.45,22.02 -2.24,34.28 3.76,46.7 6.48,13.38 18.56,22.11 26.33,27.74 11.78,8.54 17.4,8.82 21.32,16.42 3.73,7.25 0.79,11.29 0,28.99 -0.44,9.76 -1.03,25.24 3.76,41.66 3.42,11.76 8.4,19.86 12.55,26.5 7.12,11.38 15.69,25.11 31.34,34.05 12.91,7.39 26.83,9.32 41.38,11.36 16.26,2.28 23.79,1 31.36,7.57 8.99,7.82 9.92,19.73 10.03,21.45 0.54,8.45 -2.39,17.3 -15.06,32.81 -18.15,22.27 -27.25,22.61 -46.38,42.91 -9.76,10.32 -20.24,21.4 -27.6,39.1 -10.04,24.14 -8.33,46.2 -7.53,55.52 1.57,17.7 5.26,17.57 12.55,50.47 4.21,18.96 3.03,19.24 8.78,47.95 7.69,38.41 11.43,46.17 17.56,52.99 7.18,8.03 14.8,11.63 27.57,17.67 8.21,3.88 22.4,9.63 48.92,13.89 12.66,2 33.99,5.28 62.69,3.78 38.63,-2.07 46.16,-10.45 67.72,-3.78 6.35,1.93 23.19,7.38 33.85,22.7 9.42,13.51 6.04,23.18 10.04,46.67 2.43,14.17 4.14,13.6 26.33,70.65 16.85,43.29 14.3,39.66 21.33,55.55 10.84,24.52 20.34,40.94 33.85,64.34 18.22,31.52 28.85,46.04 41.39,59.29 8.29,8.76 17.05,16.64 30.11,21.46 5.54,2.07 16.91,6.26 30.08,3.79 14.12,-2.66 16.33,-10.36 41.38,-27.78 16.44,-11.42 24.93,-17.17 37.61,-18.92 11.41,-1.56 20.21,0.91 30.11,3.78 8.02,2.35 19.63,6.63 55.18,30.28 24.1,16.05 25.78,18.77 35.11,21.46 21.02,6.13 39.94,0.4 45.15,-1.25 32.05,-10.17 31.78,-31.84 65.2,-42.92 6.74,-2.22 2.2,0.16 38.89,-6.28 33.13,-5.85 37.3,-7.88 47.65,-6.32 2.92,0.44 25.55,4.19 41.38,22.7 7.52,8.79 7.79,14.27 18.8,52.99 12,42.19 16.1,51.23 18.81,56.8 9.32,18.98 15.28,31.12 28.84,40.38 8.09,5.5 11.16,4.72 48.92,17.64 17.39,5.97 26.13,8.97 28.83,11.35 16.44,14.42 7.36,34.13 18.82,63.11 10.09,25.5 28.96,40.23 38.87,47.95 22.03,17.14 42.81,21.77 75.24,29 18.86,4.22 50.22,10.95 91.55,7.57 32.53,-2.63 55.52,-10.29 81.51,-18.92 24.25,-8.04 38.6,-12.95 55.17,-25.25 20.71,-15.29 35.16,-34.9 36.37,-36.56 9.11,-12.54 7.75,-14.45 13.79,-20.21 3.03,-2.87 16.02,-14.51 56.43,-15.13 35.98,-0.56 40.21,8.44 68.98,5.04 8.13,-0.94 24.37,-3.01 42.63,-12.61 23.66,-12.42 37.15,-30.37 42.64,-37.85 8.48,-11.57 15.33,-24.8 18.8,-31.56 8.12,-15.69 7.85,-18.6 13.8,-26.48 8.9,-11.77 13.26,-10.26 26.33,-23.96 8.82,-9.26 16.24,-17.05 20.07,-29.03 1.18,-3.69 1.75,-6.94 1.26,-36.6 -0.45,-26.8 -0.98,-26.77 0,-30.27 4.4,-15.95 19.07,-31.18 37.61,-35.34 16.52,-3.73 30.23,2.69 35.13,5.03 17.45,8.45 17.09,18.77 41.37,41.66 14.77,13.89 22.14,20.87 33.85,23.96 5.57,1.47 10.26,1.69 47.66,-3.78 32.45,-4.76 31.94,-5.35 37.62,-5.04 19.87,1.07 22.31,8.23 48.92,12.61 16.1,2.65 25.41,4.19 36.35,0 16.91,-6.45 25.57,-21.9 28.85,-27.75 11.3,-20.17 3.54,-28.46 13.8,-41.66 9.17,-11.79 23.19,-15.16 43.88,-20.17 28.69,-6.94 34.42,-0.47 47.65,-8.82 18.68,-11.82 24.84,-35.75 26.34,-41.66 5.77,-22.49 -1.7,-33.99 7.53,-42.88 7.38,-7.13 13.82,-1.38 30.09,-7.57 22.52,-8.63 34.07,-28.8 36.37,-32.81 8.09,-14.17 2.83,-15.89 11.28,-31.55 10.93,-20.27 21.6,-20.87 25.09,-36.6 2.91,-13.14 -1.93,-24.62 -3.76,-29.02 -6.14,-14.58 -16.06,-18.93 -21.33,-25.21 -26.11,-31.19 50.05,-119.48 47.65,-206.93 -0.59,-21.77 -5.9,-38.16 -7.52,-42.91 -3.35,-9.82 -11.98,-34.19 -33.85,-54.27 -13.2,-12.07 -16.32,-8.94 -41.39,-29.02 -20.72,-16.55 -24.63,-23.53 -26.33,-30.28 -3.09,-12.17 -0.21,-28.55 10.03,-35.31 5.47,-3.63 11.94,-3.76 28.84,0 38.8,8.57 48.68,19.05 76.49,21.45 11.38,0.98 20.52,1.76 31.37,-2.53 22.45,-8.88 33.09,-32.03 36.35,-39.13 7.85,-17.01 3.19,-20.42 11.3,-36.59 7.44,-14.86 17.28,-23.77 28.83,-34.06 25.21,-22.43 33.74,-18.49 46.39,-35.31 4.06,-5.38 14.63,-21.02 15.07,-42.91 0.09,-5.07 -0.05,-25.77 -13.81,-44.17 -15.88,-21.23 -32.9,-16.63 -45.14,-37.84 -7.76,-13.45 -7.62,-26.93 -7.53,-31.56 0.32,-14.48 5.9,-28.4 31.36,-59.3 37.39,-45.38 52.31,-48.1 62.7,-76.97 3.17,-8.82 8.41,-23.4 6.26,-41.63 -1.12,-9.57 -3.06,-9.76 -8.78,-35.32 -4.58,-20.51 -4.94,-27.51 -5,-31.55 -0.19,-9.95 1.18,-10.57 1.24,-23.96 0.08,-14.79 0.05,-22.3 -3.76,-29.03 -3.93,-6.97 -9.68,-10.13 -18.8,-15.13 -16.11,-8.86 -22.26,-6.14 -36.38,-15.14 -6.96,-4.47 -11.85,-7.6 -15.04,-13.89 -4.88,-9.66 0.45,-14.61 -1.26,-30.27 -0.34,-3.19 -3.99,-13.11 -11.28,-32.81 -6.98,-18.89 -7.99,-21.3 -11.29,-23.99 -7.85,-6.38 -14.67,-2.98 -27.59,-6.32 -11.67,-3 -19.06,-9.57 -33.84,-22.71 -6.72,-5.94 -19.62,-18.17 -33.87,-37.84 -18.1,-24.99 -16.35,-31.65 -27.59,-37.85 -9.67,-5.34 -17.19,-3.88 -45.14,-2.53 -27.51,1.35 0.39,-1.1 -53.93,1.28 -70.21,3.03 -70.58,5.07 -79,1.25 -16.54,-7.5 -26.43,-20.55 -48.9,-21.45 -7.76,-0.32 -13.63,0.93 -15.06,1.25 -22.82,5.13 -36.56,24.24 -41.37,30.3 -17.17,21.55 -30.05,14.83 -142.97,63.09 -28.98,12.39 -43.81,18.74 -60.19,27.74 -39.84,21.9 -42.79,31.09 -67.72,41.63 -25.91,10.98 -48.62,11.1 -94.05,11.39 -52.98,0.28 -61.06,-7.76 -104.07,-2.54 -28.04,3.41 -51.42,7.57 -51.42,7.57 -20.4,3.63 -31.27,6.35 -50.17,7.57 -19.39,1.25 -29.31,1.82 -40.13,-2.53 -19.68,-7.89 -29.55,-24.83 -32.59,-30.28 -7.35,-13.04 -7.48,-22.45 -10.04,-52.98 -4.96,-58.99 -6.95,-53.01 -7.52,-80.76 -0.41,-19.42 -0.8,-38.16 2.5,-63.08 4.23,-31.94 12.04,-55.55 17.56,-71.94 12.99,-38.6 31.35,-76.94 31.35,-76.94 4.57,-9.57 13.82,-28.34 18.81,-54.26 2.42,-12.58 2.87,-21.81 0,-31.56 0,0 -4.48,-15.24 -18.81,-27.75 -28.92,-25.27 -121.61,-17.45 -156.75,-15.14 -90.05,5.89 -153.37,10.01 -229.5,1.26 -32.33,-3.73 -70.33,-10.17 -94.03,12.6 -13.4,12.89 -21.01,33.87 -20.08,53.01 0.81,16.2 7.37,23.71 18.81,45.42 0,0 22.57,42.76 36.36,97.15 7.61,29.89 11.4,44.82 10.04,65.61 -2.55,39.07 -19.02,46.92 -20.06,87.08 -0.81,31.31 9.03,33.81 5.02,56.76 -6.29,36.01 -35.56,58.96 -48.91,69.41 -22.43,17.58 -33.7,17.67 -110.35,42.88 -70.26,23.14 -80.5,29.56 -111.62,31.56 -23.35,1.5 -50.23,2.91 -77.74,-11.36 -6.79,-3.53 -19.58,-13.7 -45.14,-34.06 z"
         id="path379" />
    </clipPath>
    <clipPath
       clipPathUnits="userSpaceOnUse"
       id="clipPath1716">
      <circle
         style="fill:none;stroke:#000000;stroke-width:11.1155;stroke-linecap:square;stroke-linejoin:round"
         id="circle1718"
         cx="4209.4502"
         cy="-2976.3801"
         r="2383.7922"
         transform="scale(1,-1)" />
    </clipPath>
  </defs>
  <g
     id="g351"
     transform="matrix(0.08500599,0,0,-0.08500599,-98.380057,457.37785)"
     clip-path="url(#clipPath1716)">
    <path
       d="M 8418.9,0 H 0 V 5952.76 H 8418.9 V 0"
       style="fill:#2851a9;fill-opacity:1;fill-rule:nonzero;stroke:none"
       id="path353" />
    <path
       d="m 3360.01,1019.75 h -69.02 v 8.32 c 1.88,0.16 4.59,0.39 8.15,0.7 3.55,0.32 5.99,0.78 7.32,1.41 2.34,0.94 4.06,2.36 5.16,4.28 1.09,1.91 1.64,4.39 1.64,7.44 v 59.18 h -78.17 v -57.89 c 0,-2.74 0.45,-5.04 1.35,-6.92 0.9,-1.87 2.68,-3.51 5.33,-4.92 1.33,-0.7 3.69,-1.4 7.09,-2.11 3.4,-0.7 6.08,-1.09 8.03,-1.17 v -8.32 h -69.02 v 8.32 c 1.87,0.16 4.59,0.39 8.14,0.7 3.56,0.32 6,0.78 7.32,1.41 2.35,0.94 4.07,2.36 5.16,4.28 1.09,1.91 1.64,4.39 1.64,7.44 v 120 c 0,2.5 -0.51,4.78 -1.52,6.85 -1.02,2.07 -2.78,3.7 -5.28,4.87 -2.1,1.01 -4.66,1.91 -7.67,2.69 -3.01,0.78 -5.61,1.25 -7.79,1.41 v 8.32 h 69.02 v -8.32 c -2.19,-0.08 -4.86,-0.43 -8.03,-1.06 -3.16,-0.62 -5.53,-1.21 -7.09,-1.75 -2.65,-0.94 -4.43,-2.5 -5.33,-4.69 -0.9,-2.19 -1.35,-4.57 -1.35,-7.15 v -51.56 h 78.17 v 50.39 c 0,2.5 -0.51,4.78 -1.53,6.85 -1.01,2.07 -2.77,3.7 -5.27,4.87 -2.11,1.01 -4.67,1.91 -7.68,2.69 -3,0.78 -5.6,1.25 -7.79,1.41 v 8.32 h 69.02 v -8.32 c -2.18,-0.08 -4.86,-0.43 -8.02,-1.06 -3.17,-0.62 -5.53,-1.21 -7.09,-1.75 -2.66,-0.94 -4.44,-2.5 -5.33,-4.69 -0.9,-2.19 -1.35,-4.57 -1.35,-7.15 v -119.88 c 0,-2.74 0.45,-5.04 1.35,-6.92 0.89,-1.87 2.67,-3.51 5.33,-4.92 1.33,-0.7 3.69,-1.4 7.09,-2.11 3.4,-0.7 6.07,-1.09 8.02,-1.17 v -8.32"
       style="fill:#ffffff;fill-opacity:1;fill-rule:nonzero;stroke:none"
       id="path355" />
    <path
       d="m 3469.18,1087.72 -25.18,64.53 -24.83,-64.53 z m 66.91,-67.97 h -69.12 v 8.32 c 6.09,0.39 11.15,1.17 15.17,2.34 4.03,1.18 6.04,2.62 6.04,4.34 0,0.7 -0.08,1.56 -0.24,2.58 -0.15,1.01 -0.39,1.91 -0.7,2.69 l -13.77,37.27 h -58.38 c -2.18,-5.47 -3.96,-10.24 -5.33,-14.3 -1.38,-4.06 -2.61,-7.81 -3.7,-11.25 -1.02,-3.36 -1.72,-6.09 -2.11,-8.2 -0.39,-2.11 -0.59,-3.83 -0.59,-5.16 0,-3.12 2.47,-5.54 7.39,-7.26 4.92,-1.72 10.47,-2.74 16.64,-3.05 v -8.32 h -62.63 v 8.32 c 2.03,0.16 4.57,0.61 7.62,1.35 3.04,0.74 5.54,1.74 7.5,2.99 3.12,2.11 5.54,4.31 7.26,6.62 1.72,2.3 3.4,5.49 5.04,9.55 8.36,20.86 17.58,44.29 27.66,70.31 10.08,26.02 19.06,49.18 26.95,69.49 h 9.38 l 55.43,-143.43 c 1.17,-3.05 2.5,-5.51 3.98,-7.39 1.49,-1.87 3.56,-3.71 6.21,-5.51 1.8,-1.09 4.14,-2.01 7.03,-2.75 2.89,-0.74 5.32,-1.15 7.27,-1.23 v -8.32"
       style="fill:#ffffff;fill-opacity:1;fill-rule:nonzero;stroke:none"
       id="path357" />
    <path
       d="m 3555.01,1161.9 c -1.01,1.87 -2.48,3.92 -4.39,6.15 -1.91,2.23 -4.24,4.08 -6.97,5.57 -2.11,1.09 -4.55,2.01 -7.33,2.75 -2.77,0.74 -5.25,1.19 -7.44,1.35 v 8.32 h 70.08 v -8.32 c -4.91,-0.24 -9.55,-0.78 -13.92,-1.64 -4.37,-0.86 -6.56,-2.27 -6.56,-4.22 0,-0.86 0.31,-1.99 0.94,-3.4 0.62,-1.41 1.09,-2.38 1.41,-2.93 3.12,-6.01 8.03,-15.55 14.71,-28.6 6.68,-13.06 15.93,-30.69 27.74,-52.88 4.45,9.61 9.28,20.44 14.52,32.48 5.22,12.04 9.4,21.84 12.53,29.43 3.28,8.2 5.27,13.65 5.97,16.35 0.71,2.69 1.06,4.67 1.06,5.92 0,1.56 -0.75,2.91 -2.23,4.04 -1.48,1.13 -3.41,2.09 -5.75,2.87 -2.34,0.7 -4.78,1.25 -7.28,1.64 -2.51,0.39 -5.13,0.7 -7.87,0.94 v 8.32 h 62.11 v -8.32 c -2.03,-0.08 -4.59,-0.55 -7.67,-1.41 -3.09,-0.86 -5.73,-1.91 -7.91,-3.16 -2.66,-1.56 -4.79,-3.5 -6.39,-5.8 -1.6,-2.31 -3.38,-5.45 -5.33,-9.44 -6.1,-12.26 -13.58,-28.36 -22.44,-48.28 -8.87,-19.92 -15.69,-34.72 -20.45,-44.41 -4.77,-9.69 -9.38,-17.7 -13.83,-24.02 -4.45,-6.33 -8.95,-11.25 -13.48,-14.77 -4.61,-3.67 -8.84,-6.09 -12.71,-7.27 -3.87,-1.17 -8.07,-1.75 -12.6,-1.75 -6.25,0 -11.52,1.71 -15.82,5.15 -4.3,3.44 -6.45,7.46 -6.45,12.07 0,3.91 1.2,7.31 3.58,10.2 2.38,2.89 5.46,4.33 9.21,4.33 2.73,0 5.13,-0.62 7.2,-1.87 2.08,-1.25 3.78,-2.74 5.11,-4.45 1.33,-1.64 2.66,-3.66 3.99,-6.04 1.32,-2.38 2.42,-4.24 3.28,-5.57 5.87,1.63 10.75,4.81 14.66,9.53 3.91,4.71 7.74,10.38 11.49,17 -9.93,19.16 -20.66,39.71 -32.2,61.69 -11.53,21.97 -19.05,36.12 -22.57,42.45"
       style="fill:#ffffff;fill-opacity:1;fill-rule:nonzero;stroke:none"
       id="path359" />
    <path
       d="m 3871.94,1019.75 h -45.77 c -3.22,9.07 -6.35,17.35 -9.41,24.82 -3.05,7.47 -6.19,14.73 -9.4,21.77 -5.25,11.82 -10.55,19.8 -15.9,23.95 -5.34,4.15 -12.55,6.22 -21.6,6.22 h -8.55 v -53.29 c 0,-2.59 0.49,-4.9 1.47,-6.93 0.97,-2.04 2.75,-3.68 5.33,-4.93 1.25,-0.56 3.57,-1.22 6.97,-2 3.4,-0.78 6.23,-1.21 8.5,-1.29 v -8.32 h -69.02 v 8.32 c 1.79,0.16 4.41,0.39 7.85,0.7 3.43,0.32 5.86,0.78 7.26,1.41 2.35,1.02 4.05,2.52 5.1,4.51 1.06,1.99 1.58,4.4 1.58,7.21 v 120 c 0,2.65 -0.45,4.96 -1.35,6.91 -0.89,1.96 -2.67,3.56 -5.33,4.81 -2.11,1.01 -4.61,1.91 -7.5,2.69 -2.89,0.78 -5.43,1.25 -7.61,1.41 v 8.32 h 69.02 v -8.32 c -2.19,-0.08 -4.92,-0.43 -8.2,-1.06 -3.29,-0.62 -5.71,-1.21 -7.27,-1.75 -2.66,-0.94 -4.45,-2.5 -5.39,-4.69 -0.94,-2.19 -1.41,-4.57 -1.41,-7.15 v -56.95 h 10.91 c 2.9,0 5.73,0.62 8.51,1.87 2.78,1.25 5.34,3.09 7.69,5.51 3.36,3.44 6.06,7.64 8.09,12.6 2.02,4.96 4.21,10.95 6.54,17.99 2.19,6.48 4.45,12.5 6.79,18.04 2.33,5.55 5.77,10.67 10.3,15.35 3.05,3.13 6.64,5.59 10.78,7.39 4.14,1.79 8.64,2.69 13.48,2.69 3.36,0 6.29,-0.41 8.79,-1.23 2.5,-0.82 4.61,-1.97 6.33,-3.46 1.56,-1.32 2.73,-2.89 3.51,-4.68 0.78,-1.8 1.17,-3.75 1.17,-5.86 0,-1.72 -0.25,-3.4 -0.76,-5.04 -0.51,-1.64 -1.23,-3.01 -2.17,-4.1 -1.09,-1.33 -2.3,-2.37 -3.63,-3.11 -1.33,-0.74 -3.2,-1.11 -5.62,-1.11 -2.58,0 -4.83,0.43 -6.74,1.29 -1.92,0.86 -3.58,2.03 -4.98,3.51 -1.41,1.49 -2.68,3.23 -3.81,5.22 -1.13,1.99 -2.21,4 -3.22,6.03 -2.19,-1.48 -4.05,-3.32 -5.57,-5.5 -1.52,-2.19 -2.87,-4.54 -4.04,-7.04 -1.17,-2.5 -2.21,-5.15 -3.11,-7.96 -0.9,-2.82 -1.93,-5.94 -3.1,-9.38 -0.94,-2.89 -2.03,-6.11 -3.28,-9.67 -1.25,-3.55 -2.7,-6.85 -4.34,-9.9 -1.72,-3.28 -3.73,-6.56 -6.04,-9.84 -2.3,-3.28 -5.05,-6.36 -8.26,-9.25 v -1.63 c 8.67,-2.41 15.88,-6.27 21.62,-11.56 5.75,-5.29 10.57,-12.11 14.48,-20.49 2.18,-4.78 4.59,-9.92 7.2,-15.43 2.62,-5.52 4.79,-10.2 6.51,-14.03 2.42,-5.24 4.76,-8.75 7.03,-10.5 2.26,-1.77 4.57,-2.85 6.91,-3.24 2.03,-0.32 4.22,-0.61 6.56,-0.89 2.35,-0.27 4.38,-0.48 6.1,-0.64 v -8.32"
       style="fill:#ffffff;fill-opacity:1;fill-rule:nonzero;stroke:none"
       id="path361" />
    <path
       d="m 4079.57,1048.46 c 4.37,7.11 7.55,15.16 9.55,24.14 1.99,8.99 2.98,19.02 2.98,30.12 0,11.4 -1.11,21.87 -3.34,31.4 -2.22,9.54 -5.48,17.66 -9.78,24.38 -4.3,6.64 -9.69,11.82 -16.17,15.53 -6.49,3.71 -13.91,5.56 -22.27,5.56 -9.37,0 -17.34,-2.14 -23.9,-6.44 -6.57,-4.3 -11.92,-10.04 -16.06,-17.23 -3.91,-6.87 -6.82,-14.92 -8.73,-24.14 -1.91,-9.22 -2.87,-18.91 -2.87,-29.06 0,-11.25 1.02,-21.41 3.05,-30.47 2.03,-9.06 5.23,-17.11 9.61,-24.14 4.21,-6.88 9.53,-12.25 15.93,-16.11 6.41,-3.87 14.07,-5.8 22.97,-5.8 8.36,0 15.9,1.95 22.62,5.85 6.72,3.91 12.19,9.38 16.41,16.41 z m 17.46,117.89 c 7.34,-7.65 13.08,-16.89 17.22,-27.71 4.14,-10.82 6.21,-22.8 6.21,-35.92 0,-13.2 -2.11,-25.2 -6.32,-35.98 -4.22,-10.78 -10.08,-19.96 -17.58,-27.54 -7.27,-7.5 -15.71,-13.28 -25.31,-17.34 -9.61,-4.06 -19.85,-6.09 -30.71,-6.09 -11.56,0 -22.24,2.16 -32.05,6.5 -9.8,4.34 -18.22,10.37 -25.25,18.1 -7.03,7.58 -12.56,16.78 -16.58,27.6 -4.03,10.82 -6.04,22.4 -6.04,34.75 0,13.51 2.11,25.56 6.33,36.15 4.22,10.59 10.04,19.75 17.46,27.48 7.34,7.66 15.88,13.52 25.6,17.58 9.73,4.06 19.91,6.09 30.53,6.09 11.02,0 21.41,-2.07 31.17,-6.21 9.77,-4.14 18.21,-9.96 25.32,-17.46"
       style="fill:#ffffff;fill-opacity:1;fill-rule:nonzero;stroke:none"
       id="path363" />
    <path
       d="m 4450.91,1019.75 h -45.78 c -3.19,9.07 -6.32,17.35 -9.35,24.82 -3.04,7.47 -6.16,14.73 -9.36,21.77 -5.14,11.66 -10.35,19.6 -15.64,23.83 -5.29,4.23 -12.37,6.34 -21.21,6.34 h -7.17 v -53.29 c 0,-2.59 0.49,-4.9 1.46,-6.93 0.98,-2.04 2.76,-3.68 5.33,-4.93 1.25,-0.56 3.58,-1.22 6.98,-2 3.4,-0.78 6.23,-1.21 8.49,-1.29 v -8.32 h -69.02 v 8.32 c 1.8,0.16 4.41,0.39 7.85,0.7 3.44,0.32 5.86,0.78 7.27,1.41 2.34,1.02 4.04,2.53 5.09,4.52 1.06,2 1.59,4.41 1.59,7.22 v 54.59 h -7.16 c -8.99,0 -16.05,-1.98 -21.16,-5.93 -5.12,-3.96 -10.42,-12.03 -15.89,-24.24 -3.13,-6.81 -6.38,-14.43 -9.74,-22.88 -3.36,-8.46 -6.37,-16.36 -9.02,-23.71 h -45.55 v 8.32 c 1.8,0.23 3.79,0.45 5.98,0.64 2.18,0.2 4.37,0.49 6.56,0.88 3.28,0.63 5.98,1.97 8.09,4.01 2.11,2.03 4.18,5.28 6.21,9.74 1.72,3.91 3.86,8.55 6.44,13.91 2.58,5.36 5,10.54 7.27,15.55 3.98,8.77 8.81,15.73 14.47,20.9 5.66,5.17 12.6,8.88 20.8,11.15 v 1.63 c -3.12,2.81 -5.82,5.74 -8.08,8.78 -2.27,3.04 -4.26,6.33 -5.98,9.84 -1.64,3.28 -3.01,6.52 -4.1,9.73 -1.1,3.2 -2.19,6.56 -3.28,10.08 -0.79,2.65 -1.68,5.68 -2.7,9.08 -1.02,3.4 -2.03,6.27 -3.05,8.61 -1.17,2.58 -2.54,4.94 -4.1,7.09 -1.56,2.15 -3.44,3.93 -5.62,5.33 -0.86,-1.72 -1.96,-3.73 -3.28,-6.03 -1.33,-2.31 -2.58,-4.04 -3.75,-5.22 -1.64,-1.64 -3.25,-2.85 -4.81,-3.63 -1.56,-0.78 -3.87,-1.17 -6.91,-1.17 -4.22,0 -7.31,1.42 -9.26,4.28 -1.95,2.85 -2.93,5.87 -2.93,9.08 0,2.03 0.37,3.9 1.11,5.62 0.75,1.72 1.94,3.36 3.58,4.92 1.56,1.41 3.62,2.54 6.16,3.4 2.54,0.86 5.53,1.29 8.97,1.29 5,0 9.51,-0.88 13.49,-2.63 3.99,-1.76 7.59,-4.24 10.79,-7.45 4.22,-4.29 7.63,-9.49 10.21,-15.58 2.57,-6.1 4.76,-12.03 6.54,-17.81 2.18,-6.96 4.07,-12.82 5.7,-17.58 1.63,-4.77 4.44,-9.1 8.43,-13.01 2.5,-2.42 5.1,-4.26 7.79,-5.51 2.7,-1.25 5.5,-1.87 8.39,-1.87 h 9.39 v 55.78 c 0,2.65 -0.45,4.96 -1.35,6.91 -0.9,1.96 -2.68,3.56 -5.33,4.81 -2.11,1.01 -4.61,1.91 -7.5,2.69 -2.89,0.78 -5.43,1.25 -7.62,1.41 v 8.32 h 69.02 v -8.32 c -2.18,-0.08 -4.92,-0.43 -8.2,-1.06 -3.28,-0.62 -5.7,-1.21 -7.27,-1.75 -2.65,-0.94 -4.45,-2.5 -5.39,-4.69 -0.93,-2.19 -1.4,-4.57 -1.4,-7.15 v -56.95 h 9.38 c 2.89,0 5.72,0.62 8.5,1.87 2.77,1.25 5.33,3.09 7.68,5.51 3.36,3.44 6.09,7.79 8.2,13.07 2.1,5.27 4.12,11.11 6.06,17.52 1.8,5.86 4,11.83 6.61,17.93 2.63,6.09 5.97,11.25 10.03,15.46 3.05,3.13 6.64,5.59 10.78,7.39 4.14,1.79 8.65,2.69 13.49,2.69 3.36,0 6.29,-0.41 8.79,-1.23 2.51,-0.82 4.62,-1.97 6.34,-3.46 1.56,-1.32 2.73,-2.89 3.51,-4.68 0.78,-1.8 1.17,-3.75 1.17,-5.86 0,-1.72 -0.25,-3.4 -0.76,-5.04 -0.51,-1.64 -1.23,-3.01 -2.17,-4.1 -1.09,-1.33 -2.3,-2.37 -3.63,-3.11 -1.33,-0.74 -3.2,-1.11 -5.62,-1.11 -2.58,0 -4.83,0.43 -6.74,1.29 -1.92,0.86 -3.58,2.03 -4.98,3.51 -1.41,1.49 -2.68,3.23 -3.81,5.22 -1.13,1.99 -2.21,4 -3.22,6.03 -2.19,-1.4 -4.05,-3.18 -5.57,-5.33 -1.52,-2.15 -2.87,-4.47 -4.04,-6.97 -1.02,-2.19 -2.05,-5.06 -3.11,-8.61 -1.05,-3.56 -1.97,-6.51 -2.75,-8.85 -0.78,-2.58 -1.84,-5.82 -3.17,-9.73 -1.32,-3.91 -2.69,-7.23 -4.1,-9.96 -1.64,-3.28 -3.61,-6.56 -5.92,-9.84 -2.3,-3.28 -5.05,-6.36 -8.26,-9.25 v -1.63 c 8.28,-2.35 15.32,-6.17 21.1,-11.5 5.78,-5.33 10.58,-12.17 14.41,-20.55 2.19,-4.77 4.59,-9.92 7.21,-15.43 2.61,-5.52 4.78,-10.2 6.5,-14.03 1.88,-4.07 3.87,-7.18 5.98,-9.33 2.11,-2.16 4.41,-3.51 6.91,-4.06 2.35,-0.47 4.79,-0.86 7.33,-1.18 2.54,-0.31 4.66,-0.54 6.38,-0.7 v -8.32"
       style="fill:#ffffff;fill-opacity:1;fill-rule:nonzero;stroke:none"
       id="path365" />
    <path
       d="m 4644.44,1019.75 h -68.79 v 8.32 c 1.87,0.16 4.63,0.39 8.26,0.7 3.63,0.32 6.11,0.78 7.44,1.41 2.35,0.94 4.07,2.36 5.16,4.28 1.09,1.91 1.64,4.39 1.64,7.44 v 103.71 l -80.39,-100.31 v -2.7 c 0,-2.73 0.45,-4.94 1.35,-6.62 0.89,-1.68 2.67,-3.22 5.33,-4.63 1.33,-0.7 3.79,-1.4 7.38,-2.11 3.6,-0.7 6.41,-1.09 8.44,-1.17 v -8.32 h -68.79 v 8.32 c 1.87,0.16 4.59,0.39 8.14,0.7 3.56,0.32 6,0.78 7.33,1.41 2.34,0.94 4.06,2.36 5.15,4.28 1.1,1.91 1.65,4.39 1.65,7.44 v 120 c 0,2.5 -0.51,4.78 -1.53,6.85 -1.01,2.07 -2.77,3.7 -5.27,4.87 -2.11,1.01 -4.67,1.91 -7.68,2.69 -3.01,0.78 -5.6,1.25 -7.79,1.41 v 8.32 h 68.79 v -8.32 c -2.19,-0.08 -4.9,-0.43 -8.15,-1.06 -3.24,-0.62 -5.64,-1.21 -7.2,-1.75 -2.66,-0.94 -4.44,-2.5 -5.33,-4.69 -0.9,-2.19 -1.35,-4.57 -1.35,-7.15 v -101.13 l 80.39,100.19 c 0,2.82 -0.51,5.14 -1.53,6.98 -1.01,1.83 -2.77,3.34 -5.27,4.51 -1.95,0.93 -4.65,1.81 -8.08,2.63 -3.44,0.82 -6.14,1.31 -8.09,1.47 v 8.32 h 68.79 v -8.32 c -2.19,-0.08 -4.86,-0.43 -8.03,-1.06 -3.16,-0.62 -5.53,-1.21 -7.09,-1.75 -2.65,-0.94 -4.43,-2.5 -5.33,-4.69 -0.9,-2.19 -1.35,-4.57 -1.35,-7.15 v -119.88 c 0,-2.74 0.45,-5.04 1.35,-6.92 0.9,-1.87 2.68,-3.51 5.33,-4.92 1.33,-0.7 3.69,-1.4 7.09,-2.11 3.4,-0.7 6.08,-1.09 8.03,-1.17 v -8.32"
       style="fill:#ffffff;fill-opacity:1;fill-rule:nonzero;stroke:none"
       id="path367" />
    <path
       d="m 4787.92,1099.54 c 4.85,-3.29 8.79,-7.39 11.84,-12.32 3.05,-4.93 4.57,-11.3 4.57,-19.12 0,-15.41 -6.68,-27.99 -20.04,-37.73 -13.36,-9.73 -30.62,-14.6 -51.79,-14.6 -9.69,0 -18.21,1.15 -25.55,3.45 -7.35,2.31 -13.48,5.26 -18.4,8.85 -5,3.75 -8.79,7.99 -11.37,12.71 -2.58,4.73 -3.86,9.67 -3.86,14.83 0,4.37 1.17,8.24 3.51,11.6 2.34,3.36 5.74,5.04 10.2,5.04 5.07,0 8.84,-1.25 11.3,-3.75 2.47,-2.5 3.7,-5.55 3.7,-9.14 0,-2.66 -0.55,-6.13 -1.64,-10.43 -1.1,-4.3 -1.88,-7.27 -2.35,-8.91 0.63,-0.93 1.86,-2.22 3.69,-3.86 1.84,-1.64 4.16,-3.21 6.98,-4.69 2.73,-1.56 6.11,-2.91 10.13,-4.04 4.03,-1.14 8.54,-1.7 13.54,-1.7 5.7,0 11.21,0.8 16.52,2.4 5.31,1.61 9.88,4.05 13.71,7.34 3.99,3.44 7.13,7.73 9.44,12.85 2.3,5.12 3.45,11.48 3.45,19.08 0,3.98 -0.52,8.07 -1.58,12.25 -1.05,4.19 -2.87,7.81 -5.45,10.86 -2.73,3.21 -6.42,5.79 -11.07,7.75 -4.65,1.96 -10.61,2.94 -17.87,2.94 h -16.88 v 12.53 h 12.42 c 12.11,0 20.82,3.09 26.14,9.26 5.31,6.17 7.96,15.31 7.96,27.42 0,4.14 -0.5,7.97 -1.52,11.49 -1.01,3.51 -2.62,6.56 -4.8,9.14 -2.27,2.66 -5.22,4.76 -8.85,6.33 -3.63,1.56 -8.11,2.34 -13.42,2.34 -7.42,0 -13.75,-1.46 -18.98,-4.39 -5.24,-2.93 -9.73,-7.02 -13.48,-12.25 -3.52,-4.84 -6.37,-10.57 -8.55,-17.17 -2.19,-6.6 -4.03,-12.99 -5.51,-19.16 h -9.61 l 0.94,59.3 h 9.37 l 4.92,-7.97 c 4.92,3.05 11.27,5.74 19.05,8.09 7.77,2.34 15.87,3.51 24.31,3.51 8.83,0 17.15,-1.11 24.96,-3.34 7.82,-2.22 14.38,-6.03 19.69,-11.42 3.91,-4.14 6.52,-8.4 7.85,-12.78 1.33,-4.37 1.99,-8.04 1.99,-11.01 0,-3.52 -0.62,-7.35 -1.87,-11.49 -1.25,-4.14 -3.48,-8.04 -6.68,-11.72 -3.13,-3.67 -7.27,-7.05 -12.42,-10.13 -5.16,-3.09 -11.53,-5.57 -19.1,-7.44 v -1.53 c 4.61,-0.15 9.7,-0.97 15.29,-2.46 5.58,-1.49 10.64,-3.76 15.17,-6.81"
       style="fill:#ffffff;fill-opacity:1;fill-rule:nonzero;stroke:none"
       id="path369" />
    <path
       d="m 5010.27,1019.75 h -69.02 v 8.32 c 1.87,0.16 4.58,0.39 8.14,0.7 3.55,0.32 6,0.78 7.32,1.41 2.35,0.94 4.07,2.36 5.16,4.28 1.09,1.91 1.64,4.39 1.64,7.44 v 59.18 h -78.16 v -57.89 c 0,-2.74 0.45,-5.04 1.34,-6.92 0.9,-1.87 2.68,-3.51 5.34,-4.92 1.32,-0.7 3.69,-1.4 7.09,-2.11 3.39,-0.7 6.07,-1.09 8.02,-1.17 v -8.32 h -69.02 v 8.32 c 1.88,0.16 4.59,0.39 8.14,0.7 3.56,0.32 6,0.78 7.33,1.41 2.34,0.94 4.06,2.36 5.16,4.28 1.09,1.91 1.64,4.39 1.64,7.44 v 120 c 0,2.5 -0.51,4.78 -1.53,6.85 -1.01,2.07 -2.77,3.7 -5.27,4.87 -2.11,1.01 -4.67,1.91 -7.68,2.69 -3,0.78 -5.6,1.25 -7.79,1.41 v 8.32 h 69.02 v -8.32 c -2.18,-0.08 -4.86,-0.43 -8.02,-1.06 -3.17,-0.62 -5.53,-1.21 -7.09,-1.75 -2.66,-0.94 -4.44,-2.5 -5.34,-4.69 -0.89,-2.19 -1.34,-4.57 -1.34,-7.15 v -51.56 h 78.16 v 50.39 c 0,2.5 -0.51,4.78 -1.52,6.85 -1.02,2.07 -2.78,3.7 -5.28,4.87 -2.11,1.01 -4.66,1.91 -7.67,2.69 -3.01,0.78 -5.61,1.25 -7.79,1.41 v 8.32 h 69.02 v -8.32 c -2.19,-0.08 -4.86,-0.43 -8.03,-1.06 -3.16,-0.62 -5.53,-1.21 -7.09,-1.75 -2.65,-0.94 -4.43,-2.5 -5.33,-4.69 -0.9,-2.19 -1.35,-4.57 -1.35,-7.15 v -119.88 c 0,-2.74 0.45,-5.04 1.35,-6.92 0.9,-1.87 2.68,-3.51 5.33,-4.92 1.33,-0.7 3.69,-1.4 7.09,-2.11 3.4,-0.7 6.08,-1.09 8.03,-1.17 v -8.32"
       style="fill:#ffffff;fill-opacity:1;fill-rule:nonzero;stroke:none"
       id="path371" />
    <path
       d="m 5218.68,1019.75 h -68.79 v 8.32 c 1.87,0.16 4.63,0.39 8.26,0.7 3.63,0.32 6.11,0.78 7.44,1.41 2.34,0.94 4.06,2.36 5.16,4.28 1.09,1.91 1.64,4.39 1.64,7.44 v 103.71 L 5092,1045.3 v -2.7 c 0,-2.73 0.45,-4.94 1.34,-6.62 0.9,-1.68 2.68,-3.22 5.34,-4.63 1.32,-0.7 3.79,-1.4 7.38,-2.11 3.59,-0.7 6.41,-1.09 8.44,-1.17 v -8.32 h -68.79 v 8.32 c 1.87,0.16 4.59,0.39 8.14,0.7 3.56,0.32 6,0.78 7.33,1.41 2.34,0.94 4.06,2.36 5.15,4.28 1.1,1.91 1.64,4.39 1.64,7.44 v 120 c 0,2.5 -0.5,4.78 -1.52,6.85 -1.02,2.07 -2.77,3.7 -5.27,4.87 -2.11,1.01 -4.67,1.91 -7.68,2.69 -3.01,0.78 -5.6,1.25 -7.79,1.41 v 8.32 h 68.79 v -8.32 c -2.19,-0.08 -4.91,-0.43 -8.15,-1.06 -3.24,-0.62 -5.64,-1.21 -7.2,-1.75 -2.66,-0.94 -4.44,-2.5 -5.34,-4.69 -0.89,-2.19 -1.34,-4.57 -1.34,-7.15 v -101.13 l 80.39,100.19 c 0,2.82 -0.51,5.14 -1.53,6.98 -1.01,1.83 -2.77,3.34 -5.27,4.51 -1.95,0.93 -4.65,1.81 -8.09,2.63 -3.43,0.82 -6.13,1.31 -8.08,1.47 v 8.32 h 68.79 v -8.32 c -2.19,-0.08 -4.87,-0.43 -8.03,-1.06 -3.16,-0.62 -5.53,-1.21 -7.09,-1.75 -2.66,-0.94 -4.43,-2.5 -5.33,-4.69 -0.9,-2.19 -1.35,-4.57 -1.35,-7.15 v -119.88 c 0,-2.74 0.45,-5.04 1.35,-6.92 0.9,-1.87 2.67,-3.51 5.33,-4.92 1.33,-0.7 3.69,-1.4 7.09,-2.11 3.4,-0.7 6.07,-1.09 8.03,-1.17 v -8.32"
       style="fill:#ffffff;fill-opacity:1;fill-rule:nonzero;stroke:none"
       id="path373" />
    <g
       id="g375">
      <g
         id="g377"
         clip-path="url(#clipPath381)">
        <path
           d="m 2511.89,3020.1 2252.84,-1375.52 3.13,5.2 -2252.84,1375.52 -3.13,-5.2"
           style="fill:#ffffff;fill-opacity:1;fill-rule:nonzero;stroke:none"
           id="path383" />
        <path
           d="m 2538.82,3064.76 2252.84,-1375.52 3.14,5.2 -2252.84,1375.52 -3.14,-5.2"
           style="fill:#ffffff;fill-opacity:1;fill-rule:nonzero;stroke:none"
           id="path385" />
        <path
           d="m 2565.79,3109.44 2252.8,-1375.53 3.14,5.2 -2252.81,1375.53 -3.13,-5.2"
           style="fill:#ffffff;fill-opacity:1;fill-rule:nonzero;stroke:none"
           id="path387" />
        <path
           d="m 2592.72,3154.11 2252.81,-1375.54 3.14,5.2 -2252.81,1375.54 -3.14,-5.2"
           style="fill:#ffffff;fill-opacity:1;fill-rule:nonzero;stroke:none"
           id="path389" />
        <path
           d="m 2619.66,3198.76 2252.81,-1375.53 3.14,5.21 -2252.82,1375.52 -3.13,-5.2"
           style="fill:#ffffff;fill-opacity:1;fill-rule:nonzero;stroke:none"
           id="path391" />
        <path
           d="m 2646.59,3243.42 2252.82,-1375.53 3.14,5.21 -2252.82,1375.53 -3.14,-5.21"
           style="fill:#ffffff;fill-opacity:1;fill-rule:nonzero;stroke:none"
           id="path393" />
        <path
           d="m 2673.53,3288.1 2252.82,-1375.53 3.14,5.2 -2252.83,1375.53 -3.13,-5.2"
           style="fill:#ffffff;fill-opacity:1;fill-rule:nonzero;stroke:none"
           id="path395" />
        <path
           d="m 2700.46,3332.76 2252.82,-1375.53 3.14,5.2 -2252.82,1375.53 -3.14,-5.2"
           style="fill:#ffffff;fill-opacity:1;fill-rule:nonzero;stroke:none"
           id="path397" />
        <path
           d="m 2727.43,3377.43 2252.79,-1375.54 3.14,5.2 -2252.8,1375.54 -3.13,-5.2"
           style="fill:#ffffff;fill-opacity:1;fill-rule:nonzero;stroke:none"
           id="path399" />
        <path
           d="m 2754.36,3422.08 2252.8,-1375.53 3.13,5.2 -2252.79,1375.53 -3.14,-5.2"
           style="fill:#ffffff;fill-opacity:1;fill-rule:nonzero;stroke:none"
           id="path401" />
        <path
           d="m 2781.29,3466.76 2252.8,-1375.54 3.14,5.2 -2252.8,1375.54 -3.14,-5.2"
           style="fill:#ffffff;fill-opacity:1;fill-rule:nonzero;stroke:none"
           id="path403" />
        <path
           d="m 2808.23,3511.42 2252.82,-1375.53 3.14,5.2 -2252.82,1375.53 -3.14,-5.2"
           style="fill:#ffffff;fill-opacity:1;fill-rule:nonzero;stroke:none"
           id="path405" />
        <path
           d="m 2835.16,3556.09 2252.83,-1375.53 3.14,5.19 -2252.83,1375.54 -3.14,-5.2"
           style="fill:#ffffff;fill-opacity:1;fill-rule:nonzero;stroke:none"
           id="path407" />
        <path
           d="m 3883.61,2977.04 1231.31,-751.81 3.14,5.2 -1223.72,747.17 c -3.96,-0.26 -7.55,-0.45 -10.73,-0.56"
           style="fill:#ffffff;fill-opacity:1;fill-rule:nonzero;stroke:none"
           id="path409" />
        <path
           d="m 3836.91,3012.67 -971.68,593.29 -3.13,-5.21 972.85,-594 1.96,5.92"
           style="fill:#ffffff;fill-opacity:1;fill-rule:nonzero;stroke:none"
           id="path411" />
        <path
           d="m 3853.8,3063.47 -961.63,587.14 -3.14,-5.2 962.8,-587.86 1.97,5.92"
           style="fill:#ffffff;fill-opacity:1;fill-rule:nonzero;stroke:none"
           id="path413" />
        <path
           d="m 3968.78,2986.14 1173.08,-716.25 3.14,5.2 -1166.92,712.49 c -3.15,-0.5 -6.24,-0.98 -9.3,-1.44"
           style="fill:#ffffff;fill-opacity:1;fill-rule:nonzero;stroke:none"
           id="path415" />
        <path
           d="m 4045.95,3000.15 1122.84,-685.61 3.14,5.21 L 4054.57,3002 c -2.89,-0.63 -5.77,-1.25 -8.62,-1.85"
           style="fill:#ffffff;fill-opacity:1;fill-rule:nonzero;stroke:none"
           id="path417" />
        <path
           d="m 3870.69,3114.27 -951.55,581.01 -3.14,-5.2 952.73,-581.72 1.96,5.91"
           style="fill:#ffffff;fill-opacity:1;fill-rule:nonzero;stroke:none"
           id="path419" />
        <path
           d="m 4117.74,3017.42 1077.99,-658.21 3.14,5.2 -1073.07,655.2 c -2.69,-0.74 -5.38,-1.47 -8.06,-2.19"
           style="fill:#ffffff;fill-opacity:1;fill-rule:nonzero;stroke:none"
           id="path421" />
        <path
           d="m 3887.58,3165.07 -941.51,574.87 -3.14,-5.2 942.68,-575.59 1.97,5.92"
           style="fill:#ffffff;fill-opacity:1;fill-rule:nonzero;stroke:none"
           id="path423" />
        <path
           d="m 4184.74,3037.64 1037.95,-633.75 3.14,5.2 -1033.59,631.09 c -2.5,-0.86 -5,-1.7 -7.5,-2.54"
           style="fill:#ffffff;fill-opacity:1;fill-rule:nonzero;stroke:none"
           id="path425" />
        <path
           d="m 3904.47,3215.88 -931.47,568.74 -3.13,-5.2 932.63,-569.45 1.97,5.91"
           style="fill:#ffffff;fill-opacity:1;fill-rule:nonzero;stroke:none"
           id="path427" />
        <path
           d="m 4246.9,3060.79 1002.73,-612.24 3.13,5.2 -998.92,609.92 c -2.29,-0.97 -4.61,-1.92 -6.94,-2.88"
           style="fill:#ffffff;fill-opacity:1;fill-rule:nonzero;stroke:none"
           id="path429" />
        <path
           d="m 3978.12,3232.03 -978.18,597.25 -3.13,-5.2 970.87,-592.8 c 3.4,0.21 6.9,0.47 10.44,0.75"
           style="fill:#ffffff;fill-opacity:1;fill-rule:nonzero;stroke:none"
           id="path431" />
        <path
           d="m 3026.87,3873.95 -3.13,-5.2 966.37,-590.05 c -1.12,2.95 -2.14,5.95 -3.08,8.99 l -960.16,586.26"
           style="fill:#ffffff;fill-opacity:1;fill-rule:nonzero;stroke:none"
           id="path433" />
        <path
           d="m 4304.13,3086.96 972.43,-593.75 3.14,5.2 -969.22,591.79 c -2.09,-1.09 -4.23,-2.16 -6.35,-3.24"
           style="fill:#ffffff;fill-opacity:1;fill-rule:nonzero;stroke:none"
           id="path435" />
        <path
           d="m 4356.09,3116.34 947.41,-578.47 3.14,5.2 -944.88,576.92 c -1.88,-1.22 -3.76,-2.44 -5.67,-3.65"
           style="fill:#ffffff;fill-opacity:1;fill-rule:nonzero;stroke:none"
           id="path437" />
        <path
           d="m 3053.81,3918.61 -3.14,-5.2 929.84,-567.74 c 0.14,2.21 0.38,4.48 0.61,6.74 l -927.31,566.2"
           style="fill:#ffffff;fill-opacity:1;fill-rule:nonzero;stroke:none"
           id="path439" />
        <path
           d="m 4402.41,3149.19 928.02,-566.65 3.14,5.21 -926.14,565.49 c -1.65,-1.36 -3.34,-2.71 -5.02,-4.05"
           style="fill:#ffffff;fill-opacity:1;fill-rule:nonzero;stroke:none"
           id="path441" />
        <path
           d="m 3080.78,3963.28 -3.14,-5.21 914.87,-558.61 c 0.75,1.88 1.7,3.72 2.51,5.59 l -914.24,558.23"
           style="fill:#ffffff;fill-opacity:1;fill-rule:nonzero;stroke:none"
           id="path443" />
        <path
           d="m 4442.6,3185.75 914.77,-558.55 3.13,5.21 -913.62,557.84 c -1.4,-1.51 -2.85,-3 -4.28,-4.5"
           style="fill:#ffffff;fill-opacity:1;fill-rule:nonzero;stroke:none"
           id="path445" />
        <path
           d="m 3107.71,4007.94 -3.13,-5.2 913.09,-557.53 c 1.14,1.65 2.4,3.28 3.59,4.92 l -913.55,557.81"
           style="fill:#ffffff;fill-opacity:1;fill-rule:nonzero;stroke:none"
           id="path447" />
        <path
           d="m 3134.64,4052.62 -3.14,-5.21 919.45,-561.41 c 1.41,1.52 2.74,3.06 4.18,4.57 l -920.49,562.05"
           style="fill:#ffffff;fill-opacity:1;fill-rule:nonzero;stroke:none"
           id="path449" />
        <path
           d="m 4476.09,3226.41 908.22,-554.55 3.13,5.2 -907.95,554.39 c -1.12,-1.68 -2.23,-3.37 -3.4,-5.04"
           style="fill:#ffffff;fill-opacity:1;fill-rule:nonzero;stroke:none"
           id="path451" />
        <path
           d="m 3161.57,4097.29 -3.13,-5.21 930.89,-568.38 c 1.56,1.41 3.15,2.82 4.73,4.23 l -932.49,569.36"
           style="fill:#ffffff;fill-opacity:1;fill-rule:nonzero;stroke:none"
           id="path453" />
        <path
           d="m 4502,3271.73 909.26,-555.19 3.14,5.21 -909.96,555.6 c -0.8,-1.87 -1.59,-3.76 -2.44,-5.62"
           style="fill:#ffffff;fill-opacity:1;fill-rule:nonzero;stroke:none"
           id="path455" />
        <path
           d="m 4519.13,3322.38 919.07,-561.18 3.14,5.21 -920.84,562.25 c -0.43,-2.11 -0.89,-4.2 -1.37,-6.28"
           style="fill:#ffffff;fill-opacity:1;fill-rule:nonzero;stroke:none"
           id="path457" />
        <path
           d="m 4002.6,3644.88 -814.09,497.07 -3.14,-5.2 831.22,-507.53 c -4.84,5.09 -9.52,10.29 -13.99,15.66"
           style="fill:#ffffff;fill-opacity:1;fill-rule:nonzero;stroke:none"
           id="path459" />
        <path
           d="m 3952.93,3736.31 -737.49,450.3 -3.13,-5.2 743.42,-453.92 c -0.99,2.9 -1.92,5.84 -2.8,8.82"
           style="fill:#ffffff;fill-opacity:1;fill-rule:nonzero;stroke:none"
           id="path461" />
        <path
           d="m 4525.99,3383.36 c 0,-1.34 -0.07,-2.67 -0.09,-4.01 l 939.24,-573.48 3.13,5.2 -942.43,575.43 c 0.02,-1.06 0.15,-2.08 0.15,-3.14"
           style="fill:#ffffff;fill-opacity:1;fill-rule:nonzero;stroke:none"
           id="path463" />
        <path
           d="m 4517.3,3445.7 974.78,-595.17 3.13,5.2 -980.58,598.72 c 0.96,-2.9 1.84,-5.81 2.67,-8.75"
           style="fill:#ffffff;fill-opacity:1;fill-rule:nonzero;stroke:none"
           id="path465" />
        <path
           d="m 3942.28,3803.92 -699.9,427.35 -3.14,-5.2 703.35,-429.46 c -0.14,2.42 -0.23,4.86 -0.31,7.31"
           style="fill:#ffffff;fill-opacity:1;fill-rule:nonzero;stroke:none"
           id="path467" />
        <path
           d="M 4466.06,3538.1 5519,2895.2 l 3.14,5.2 -1071.37,654.16 c 5.4,-5.4 10.48,-10.89 15.29,-16.46"
           style="fill:#ffffff;fill-opacity:1;fill-rule:nonzero;stroke:none"
           id="path469" />
        <path
           d="m 3945.74,3862.91 -676.42,413.02 -3.14,-5.2 678.61,-414.35 c 0.29,2.19 0.62,4.37 0.95,6.53"
           style="fill:#ffffff;fill-opacity:1;fill-rule:nonzero;stroke:none"
           id="path471" />
        <path
           d="m 5545.94,2939.86 3.14,5.2 -1149.52,701.89 c -1.43,-1.49 -2.98,-2.93 -4.48,-4.39 l 1150.86,-702.7"
           style="fill:#ffffff;fill-opacity:1;fill-rule:nonzero;stroke:none"
           id="path473" />
        <path
           d="m 3958.8,3916.07 -662.52,404.52 -3.14,-5.2 663.71,-405.24 c 0.64,1.98 1.28,3.96 1.95,5.92"
           style="fill:#ffffff;fill-opacity:1;fill-rule:nonzero;stroke:none"
           id="path475" />
        <path
           d="m 5572.88,2984.52 3.14,5.2 -1145.96,699.71 c -0.89,-1.8 -1.94,-3.56 -2.92,-5.33 l 1145.74,-699.58"
           style="fill:#ffffff;fill-opacity:1;fill-rule:nonzero;stroke:none"
           id="path477" />
        <path
           d="m 3980.01,3964.22 -656.79,401.03 -3.14,-5.2 657.12,-401.23 c 0.94,1.8 1.84,3.62 2.81,5.4"
           style="fill:#ffffff;fill-opacity:1;fill-rule:nonzero;stroke:none"
           id="path479" />
        <path
           d="m 4008.39,4008.02 -658.24,401.91 -3.13,-5.2 657.76,-401.63 c 1.2,1.64 2.38,3.3 3.61,4.92"
           style="fill:#ffffff;fill-opacity:1;fill-rule:nonzero;stroke:none"
           id="path481" />
        <path
           d="m 5599.81,3029.19 3.13,5.2 -1158.38,707.31 c -0.17,-2.26 -0.34,-4.51 -0.61,-6.75 l 1155.86,-705.76"
           style="fill:#ffffff;fill-opacity:1;fill-rule:nonzero;stroke:none"
           id="path483" />
        <path
           d="m 4043.09,4047.95 -666.01,406.65 -3.13,-5.2 664.8,-405.92 c 1.44,1.49 2.88,2.99 4.34,4.47"
           style="fill:#ffffff;fill-opacity:1;fill-rule:nonzero;stroke:none"
           id="path485" />
        <path
           d="m 5626.74,3073.86 3.14,5.2 -1196.55,730.6 c 1.21,-3.05 2.39,-6.11 3.42,-9.2 l 1189.99,-726.6"
           style="fill:#ffffff;fill-opacity:1;fill-rule:nonzero;stroke:none"
           id="path487" />
        <path
           d="m 4083.5,4084.38 -679.48,414.89 -3.14,-5.21 677.63,-413.74 c 1.65,1.36 3.32,2.72 4.99,4.06"
           style="fill:#ffffff;fill-opacity:1;fill-rule:nonzero;stroke:none"
           id="path489" />
        <path
           d="m 4371.13,3901.64 1282.58,-783.12 3.14,5.2 -1303.17,795.7 c 5.9,-5.75 11.73,-11.68 17.45,-17.78"
           style="fill:#ffffff;fill-opacity:1;fill-rule:nonzero;stroke:none"
           id="path491" />
        <path
           d="m 4129.19,4117.6 -698.23,426.32 -3.14,-5.2 695.78,-424.83 c 1.85,1.25 3.72,2.48 5.59,3.71"
           style="fill:#ffffff;fill-opacity:1;fill-rule:nonzero;stroke:none"
           id="path493" />
        <path
           d="m 4361.42,3968.68 1319.22,-805.5 3.14,5.2 -1313.91,802.26 c -2.83,-0.62 -5.64,-1.3 -8.45,-1.96"
           style="fill:#ffffff;fill-opacity:1;fill-rule:nonzero;stroke:none"
           id="path495" />
        <path
           d="m 4179.84,4147.78 -721.94,440.8 -3.14,-5.2 718.95,-438.97 c 2.04,1.13 4.08,2.25 6.13,3.37"
           style="fill:#ffffff;fill-opacity:1;fill-rule:nonzero;stroke:none"
           id="path497" />
        <path
           d="m 4440.61,3981.44 1266.97,-773.58 3.13,5.2 -1259.82,769.22 c -3.42,-0.23 -6.85,-0.54 -10.28,-0.84"
           style="fill:#ffffff;fill-opacity:1;fill-rule:nonzero;stroke:none"
           id="path499" />
        <path
           d="m 4235.33,4175.02 -750.47,458.23 -3.14,-5.2 746.91,-456.06 c 2.23,1.02 4.47,2.03 6.7,3.03"
           style="fill:#ffffff;fill-opacity:1;fill-rule:nonzero;stroke:none"
           id="path501" />
        <path
           d="m 4513.39,3998.12 1221.13,-745.6 3.13,5.2 -1222.37,746.37 -1.89,-5.97"
           style="fill:#ffffff;fill-opacity:1;fill-rule:nonzero;stroke:none"
           id="path503" />
        <path
           d="m 4529.6,4049.33 1231.85,-752.16 3.13,5.21 -1233.09,752.92 -1.89,-5.97"
           style="fill:#ffffff;fill-opacity:1;fill-rule:nonzero;stroke:none"
           id="path505" />
        <path
           d="m 4295.59,4199.34 -783.8,478.58 -3.14,-5.2 779.68,-476.07 c 2.42,0.9 4.84,1.81 7.26,2.69"
           style="fill:#ffffff;fill-opacity:1;fill-rule:nonzero;stroke:none"
           id="path507" />
        <path
           d="m 4545.81,4100.55 1242.58,-758.72 3.13,5.21 -1243.82,759.47 -1.89,-5.96"
           style="fill:#ffffff;fill-opacity:1;fill-rule:nonzero;stroke:none"
           id="path509" />
        <path
           d="m 4360.88,4220.58 -822.15,502.01 -3.14,-5.2 817.42,-499.12 c 2.63,0.78 5.26,1.56 7.87,2.31"
           style="fill:#ffffff;fill-opacity:1;fill-rule:nonzero;stroke:none"
           id="path511" />
        <path
           d="m 4562.02,4151.78 1253.33,-765.26 3.14,5.2 -1254.58,766.02 -1.89,-5.96"
           style="fill:#ffffff;fill-opacity:1;fill-rule:nonzero;stroke:none"
           id="path513" />
        <path
           d="m 4431.99,4238.28 -866.33,528.96 -3.14,-5.2 860.84,-525.61 c 2.9,0.64 5.79,1.26 8.63,1.85"
           style="fill:#ffffff;fill-opacity:1;fill-rule:nonzero;stroke:none"
           id="path515" />
        <path
           d="m 4578.23,4202.99 1264.05,-771.81 3.14,5.2 -1265.3,772.57 -1.89,-5.96"
           style="fill:#ffffff;fill-opacity:1;fill-rule:nonzero;stroke:none"
           id="path517" />
        <path
           d="m 4511.63,4250.77 -919.04,561.15 -3.14,-5.2 912.21,-556.98 c 3.42,0.39 6.74,0.73 9.97,1.03"
           style="fill:#ffffff;fill-opacity:1;fill-rule:nonzero;stroke:none"
           id="path519" />
        <path
           d="m 3616.39,4851.38 2252.83,-1375.54 3.14,5.2 -2252.83,1375.54 -3.14,-5.2"
           style="fill:#ffffff;fill-opacity:1;fill-rule:nonzero;stroke:none"
           id="path521" />
        <path
           d="m 3643.36,4896.04 2252.79,-1375.53 3.14,5.2 -2252.8,1375.54 -3.13,-5.21"
           style="fill:#ffffff;fill-opacity:1;fill-rule:nonzero;stroke:none"
           id="path523" />
        <path
           d="m 3670.29,4940.72 2252.8,-1375.55 3.14,5.2 -2252.8,1375.55 -3.14,-5.2"
           style="fill:#ffffff;fill-opacity:1;fill-rule:nonzero;stroke:none"
           id="path525" />
        <path
           d="m 3697.23,4985.38 2252.79,-1375.55 3.14,5.2 -2252.8,1375.56 -3.13,-5.21"
           style="fill:#ffffff;fill-opacity:1;fill-rule:nonzero;stroke:none"
           id="path527" />
        <path
           d="m 3724.16,5030.04 2252.8,-1375.55 3.14,5.21 -2252.8,1375.54 -3.14,-5.2"
           style="fill:#ffffff;fill-opacity:1;fill-rule:nonzero;stroke:none"
           id="path529" />
        <path
           d="m 3751.1,5074.7 2252.82,-1375.53 3.14,5.2 -2252.83,1375.53 -3.13,-5.2"
           style="fill:#ffffff;fill-opacity:1;fill-rule:nonzero;stroke:none"
           id="path531" />
        <path
           d="m 3778.03,5119.38 2252.82,-1375.55 3.14,5.21 -2252.82,1375.54 -3.14,-5.2"
           style="fill:#ffffff;fill-opacity:1;fill-rule:nonzero;stroke:none"
           id="path533" />
        <path
           d="m 3804.97,5164.04 2252.82,-1375.55 3.14,5.21 -2252.82,1375.54 -3.14,-5.2"
           style="fill:#ffffff;fill-opacity:1;fill-rule:nonzero;stroke:none"
           id="path535" />
        <path
           d="m 3831.92,5208.71 2252.81,-1375.54 3.13,5.2 -2252.8,1375.54 -3.14,-5.2"
           style="fill:#ffffff;fill-opacity:1;fill-rule:nonzero;stroke:none"
           id="path537" />
        <path
           d="m 3858.87,5253.36 2252.8,-1375.54 3.13,5.2 -2252.8,1375.54 -3.13,-5.2"
           style="fill:#ffffff;fill-opacity:1;fill-rule:nonzero;stroke:none"
           id="path539" />
        <path
           d="m 3888.94,5303.24 -3.14,-5.2 2252.8,-1375.55 3.13,5.2 -2252.79,1375.55"
           style="fill:#ffffff;fill-opacity:1;fill-rule:nonzero;stroke:none"
           id="path541" />
      </g>
    </g>
    <path
       d="m 4177.98,3516.84 c -7.54,5.09 -14.79,10.22 -21.73,15.41 -68.75,-55.72 -126.37,-112.9 -136.77,-171.75 -8.51,-48.17 6.76,-84.66 36.75,-118.71 9.88,1.67 19.88,3.52 29.93,5.53 -34.59,34.27 -49.05,65.4 -41.38,108.71 9.25,52.38 65.9,106.84 133.2,160.81"
       style="fill:#ffffff;fill-opacity:1;fill-rule:nonzero;stroke:none"
       id="path543" />
    <path
       d="m 4055.91,3824.52 c 11.83,28.4 34.74,55.15 64.04,79.26 84.49,78.54 236.58,124.99 353.67,127.43 l 54.71,172.86 c -132.25,-7.98 -538.4,-112.93 -538.4,-389.72 0,-61.89 22.41,-108.61 57.5,-147.5 -17.46,49.33 -14.72,101.97 8.48,157.67"
       style="fill:#ffffff;fill-opacity:1;fill-rule:nonzero;stroke:none"
       id="path545" />
    <path
       d="m 4291.37,3604.1 c 25.72,19.91 50.75,39.99 72.76,59.8 29.63,26.67 44.44,56.68 44.01,89.18 -0.06,4.76 -0.48,9.49 -1.16,14.2 -23.77,-64.58 -97.95,-116.94 -101.45,-119.37 l -0.02,0.03 c -13.23,-10.66 -26.98,-21.34 -40.84,-31.98 -10.62,4.49 -21.53,8.89 -32.93,13.17 -44.15,16.56 -83.49,32.83 -113.83,52.44 h 189.35 c 8.46,6.97 18.2,15.72 27.97,25.68 0,0 -250.49,0 -251.16,0 h -0.08 c 0.01,0 0.01,-0.01 0.01,-0.01 0.16,-4.58 6.81,-25.67 6.81,-25.67 17.28,-49.05 59.6,-94.6 127.72,-137.42 37.04,-22.14 69.79,-43.44 94.56,-66.94 h -125.23 c -10.42,-8.58 -20.48,-17.15 -30.02,-25.69 h 178.2 c 13.8,-18.84 22.38,-39.55 24.3,-63.3 h -261.37 c -6.06,-8.81 -10.85,-17.4 -14.01,-25.69 h 274.58 c -3.75,-23.83 -16.04,-44.84 -34.34,-63.3 h -234.55 c 5.1,-8.04 12.18,-16.44 21.58,-25.69 h 181.52 c -95.67,-64.72 -268.73,-89.63 -349.96,-91.19 l -52.17,-156.97 c 113.41,7.46 586.48,85.68 586.48,357.98 0,88.51 -62.8,162.59 -186.73,220.74"
       style="fill:#ffffff;fill-opacity:1;fill-rule:nonzero;stroke:none"
       id="path547" />
    <path
       d="m 4085.71,3770.53 294.5,-0.49 c 0.03,-0.1 0.07,-0.21 0.09,-0.32 0.05,0.11 0.08,0.22 0.13,0.32 h 0.02 c 1.15,2.63 2.05,5.28 3,7.92 0.43,1.21 0.99,2.41 1.37,3.63 1.25,3.91 2.23,7.84 2.88,11.75 0.04,0.28 0.05,0.56 0.09,0.84 v 0.02 c 1.48,9.61 1.08,18.66 -1.2,27.26 -27.4,46.54 -75.55,88.22 -112.21,119.52 -8.85,-3.58 -17.67,-7.29 -26.34,-11.27 2.29,-1.96 4.57,-3.92 6.99,-5.98 13.39,-11.42 28.58,-24.43 43.69,-38.51 H 4169.4 c -11.78,-8.25 -22.63,-16.83 -32.26,-25.68 h 187.54 c 19.03,-20.15 35.91,-41.75 46.4,-63.79 l -277.69,0.45 c -3.11,-8.65 -5.82,-17.23 -7.68,-25.67"
       style="fill:#ffffff;fill-opacity:1;fill-rule:nonzero;stroke:none"
       id="path549" />
    <path
       d="m 3129.65,1774.83 c -16.83,0.01 -32.98,3.36 -48.42,10.01 -15.44,6.64 -29.17,16.22 -41.06,28.74 -11.83,12.46 -21.24,27.7 -28.23,45.72 -7.04,18.01 -10.53,38.29 -10.52,60.89 0.01,22.59 3.47,43.08 10.38,61.44 6.9,18.43 16.43,34.22 28.63,47.55 12.11,13.11 26.37,23.25 42.79,30.44 16.47,7.15 34.03,10.74 52.76,10.74 13.9,-0.01 26.51,-1.77 37.77,-5.22 11.27,-3.46 22.03,-8.3 32.22,-14.54 l 8.19,13.54 15.9,-0.01 1.75,-100.78 -16.31,0.01 c -2.11,9.83 -5.29,20.49 -9.56,31.97 -4.22,11.48 -9.2,21.21 -14.86,29.19 -6.38,9.01 -13.94,16.11 -22.69,21.22 -8.74,5.09 -18.78,7.67 -30,7.68 -12.86,0.01 -24.86,-2.82 -35.93,-8.52 -11.06,-5.71 -20.64,-14.15 -28.73,-25.32 -7.72,-10.75 -13.75,-24.43 -18.14,-41.06 -4.38,-16.57 -6.6,-35.15 -6.62,-55.58 -0.01,-18.06 2.3,-34.64 6.88,-49.72 4.57,-15.08 11.1,-28.36 19.54,-39.79 8.48,-11.28 18.51,-20.14 30.14,-26.53 11.58,-6.33 24.55,-9.53 38.85,-9.54 10.76,0 20.64,1.69 29.65,5.03 9.01,3.39 16.84,7.87 23.48,13.42 6.64,5.87 12.46,12.5 17.51,19.91 5.05,7.46 9.17,15.54 12.36,24.29 l 14.92,-7.16 c -11.38,-28 -26.52,-48.01 -45.37,-59.99 -18.84,-12.04 -41.29,-18.05 -67.28,-18.03"
       style="fill:#ffffff;fill-opacity:1;fill-rule:nonzero;stroke:none"
       id="path551" />
    <path
       d="m 3440.56,1847.34 -4.31,-65.88 -185.64,0.1 0.01,11.17 c 3.18,0.2 7.35,0.66 12.6,1.33 5.25,0.72 8.7,1.38 10.25,2.15 3.4,1.55 5.71,3.61 7,6.13 1.34,2.52 2.01,5.71 2.01,9.62 l 0.08,160.73 c 0,3.45 -0.56,6.54 -1.74,9.22 -1.13,2.67 -3.55,4.84 -7.26,6.54 -2.82,1.34 -6.63,2.57 -11.42,3.61 -4.79,1.08 -8.6,1.7 -11.42,1.91 v 11.17 l 173.03,-0.09 -0.02,-53.89 -11.84,0.01 c -2.05,7.97 -6.63,16.47 -13.57,25.48 -7,8.96 -13.63,13.91 -19.97,14.73 -3.24,0.42 -7.15,0.72 -11.63,0.93 -4.52,0.26 -9.67,0.37 -15.44,0.37 l -35.15,0.02 -0.05,-88.89 25.22,-0.01 c 8.08,0 14,0.76 17.71,2.26 3.76,1.54 7.01,4.06 9.89,7.66 2.26,3.04 4.27,7.1 5.87,12.2 1.65,5.09 2.73,9.87 3.25,14.41 l 11.84,-0.01 -0.05,-87.6 -11.84,0.01 c -0.4,5.04 -1.53,10.34 -3.39,16 -1.79,5.61 -3.75,9.68 -5.7,12.21 -3.29,4.11 -7,6.79 -11.11,8.03 -4.17,1.29 -9.68,1.91 -16.47,1.91 l -25.22,0.02 -0.04,-67.01 c 0,-6.75 0.46,-12.05 1.39,-15.91 0.97,-3.86 2.82,-6.85 5.55,-8.8 2.73,-2.01 6.43,-3.3 11.17,-3.87 4.73,-0.57 11.42,-0.88 20.17,-0.88 3.45,-0.01 8.03,-0.01 13.69,-0.01 5.66,-0.01 10.45,0.2 14.36,0.61 3.96,0.41 8.13,1.18 12.36,2.31 4.27,1.08 7.31,2.57 9.05,4.47 4.85,5.04 9.95,12.66 15.25,22.9 5.31,10.24 8.71,17.8 10.15,22.64 l 11.38,-0.01"
       style="fill:#ffffff;fill-opacity:1;fill-rule:nonzero;stroke:none"
       id="path553" />
    <path
       d="m 3602.19,1898.47 0.04,74.06 c 0,3.35 -0.72,6.43 -2.05,9.22 -1.39,2.78 -3.76,4.94 -7.1,6.53 -2.83,1.34 -6.28,2.58 -10.29,3.61 -4.07,1.09 -7.57,1.71 -10.5,1.91 v 11.17 l 92.8,-0.04 -0.01,-11.18 c -2.93,-0.09 -6.53,-0.56 -10.75,-1.38 -4.28,-0.87 -7.46,-1.64 -9.58,-2.36 -3.55,-1.29 -5.97,-3.4 -7.15,-6.33 -1.24,-2.93 -1.81,-6.12 -1.81,-9.62 l -0.08,-161.2 c -0.01,-3.65 0.56,-6.74 1.79,-9.26 1.19,-2.53 3.6,-4.74 7.15,-6.65 1.81,-0.93 4.99,-1.9 9.58,-2.84 4.52,-0.92 8.13,-1.49 10.75,-1.59 v -11.17 l -92.8,0.05 0.01,11.16 c 2.52,0.21 6.17,0.56 10.96,0.97 4.78,0.41 8.03,1.03 9.83,1.85 3.14,1.29 5.46,3.19 6.95,5.77 1.44,2.57 2.22,5.91 2.22,10.03 l 0.04,73.91 c -9.78,-4.94 -19.92,-9.2 -30.37,-12.75 -10.46,-3.6 -21.62,-5.39 -33.46,-5.39 -13.38,0.01 -24.29,1.56 -32.89,4.6 -8.54,3.04 -15.13,7.36 -19.76,12.93 -4.42,5.15 -7.4,11.27 -8.94,18.38 -1.59,7.1 -2.36,14.92 -2.36,23.57 l 0.03,46.17 c 0,3.34 -0.72,6.43 -2.06,9.21 -1.38,2.78 -3.75,4.94 -7.1,6.54 -2.83,1.34 -6.28,2.58 -10.29,3.61 -4.06,1.08 -7.56,1.7 -10.5,1.91 l 0.01,11.17 92.79,-0.05 v -11.17 c -2.93,-0.1 -6.44,-0.56 -10.55,-1.38 -4.12,-0.87 -7.26,-1.65 -9.47,-2.37 -3.55,-1.28 -5.92,-3.39 -7.16,-6.32 -1.18,-2.94 -1.8,-6.13 -1.8,-9.63 l -0.03,-40.3 c 0,-5.25 0.2,-10.5 0.71,-15.7 0.46,-5.19 2.11,-10.24 4.94,-15.03 2.62,-4.63 6.79,-8.44 12.55,-11.43 5.71,-3.04 13.53,-4.53 23.52,-4.54 7.67,0 16.42,1.02 26.25,3.07 9.83,2.06 18.48,4.78 25.94,8.28"
       style="fill:#ffffff;fill-opacity:1;fill-rule:nonzero;stroke:none"
       id="path555" />
    <path
       d="m 3876.18,1847.12 -4.3,-65.88 -185.65,0.1 0.01,11.16 c 3.19,0.21 7.36,0.67 12.61,1.34 5.25,0.71 8.7,1.38 10.24,2.15 3.4,1.54 5.71,3.6 7,6.12 1.35,2.53 2.02,5.72 2.02,9.63 l 0.08,160.73 c 0,3.45 -0.56,6.54 -1.74,9.22 -1.14,2.67 -3.55,4.84 -7.26,6.54 -2.83,1.33 -6.64,2.57 -11.42,3.6 -4.79,1.09 -8.6,1.71 -11.43,1.91 l 0.01,11.17 173.03,-0.09 -0.02,-53.88 -11.84,0.01 c -2.06,7.97 -6.63,16.47 -13.58,25.48 -6.99,8.95 -13.63,13.9 -19.96,14.73 -3.24,0.41 -7.15,0.72 -11.63,0.93 -4.53,0.26 -9.68,0.36 -15.44,0.37 l -35.15,0.01 -0.05,-88.88 25.22,-0.01 c 8.08,-0.01 14,0.76 17.71,2.25 3.75,1.55 7,4.07 9.88,7.66 2.27,3.04 4.28,7.11 5.88,12.2 1.65,5.09 2.73,9.88 3.25,14.41 h 11.83 l -0.04,-87.6 h -11.84 c -0.41,5.05 -1.54,10.35 -3.39,16.01 -1.8,5.61 -3.75,9.68 -5.7,12.2 -3.3,4.12 -7,6.8 -11.12,8.04 -4.17,1.29 -9.67,1.91 -16.47,1.91 l -25.22,0.01 -0.03,-67.01 c 0,-6.74 0.46,-12.05 1.38,-15.9 0.98,-3.86 2.83,-6.85 5.55,-8.81 2.73,-2.01 6.44,-3.29 11.17,-3.86 4.74,-0.57 11.43,-0.88 20.18,-0.89 3.44,0 8.03,0 13.69,-0.01 5.66,0 10.45,0.2 14.36,0.61 3.96,0.41 8.13,1.19 12.35,2.31 4.27,1.08 7.31,2.58 9.06,4.48 4.84,5.04 9.94,12.65 15.25,22.89 5.31,10.25 8.7,17.81 10.15,22.64 h 11.37"
       style="fill:#ffffff;fill-opacity:1;fill-rule:nonzero;stroke:none"
       id="path557" />
    <path
       d="m 4122.07,1781.11 -92.86,0.05 0.01,11.17 c 2.52,0.2 6.18,0.56 10.97,0.97 4.78,0.41 8.08,1.02 9.82,1.85 3.2,1.28 5.51,3.19 6.96,5.76 1.49,2.58 2.21,5.92 2.21,10.04 l 0.04,79.57 -105.09,0.05 -0.04,-77.87 c 0,-3.66 0.61,-6.74 1.79,-9.27 1.24,-2.52 3.61,-4.73 7.16,-6.64 1.79,-0.93 4.99,-1.91 9.57,-2.84 4.52,-0.92 8.13,-1.5 10.75,-1.6 v -11.16 l -92.8,0.04 0.01,11.17 c 2.52,0.21 6.17,0.56 10.96,0.97 4.79,0.41 8.03,1.03 9.83,1.85 3.14,1.29 5.46,3.19 6.95,5.76 1.45,2.57 2.22,5.92 2.22,10.03 l 0.08,161.36 c 0.01,3.34 -0.71,6.43 -2.05,9.21 -1.39,2.78 -3.76,4.95 -7.1,6.54 -2.83,1.34 -6.28,2.58 -10.29,3.61 -4.07,1.08 -7.57,1.7 -10.5,1.91 v 11.17 l 92.8,-0.05 v -11.17 c -2.94,-0.1 -6.54,-0.56 -10.76,-1.38 -4.27,-0.87 -7.47,-1.64 -9.58,-2.36 -3.55,-1.29 -5.92,-3.4 -7.15,-6.33 -1.19,-2.94 -1.81,-6.12 -1.81,-9.62 l -0.03,-69.33 105.09,-0.05 0.04,67.78 c 0,3.34 -0.67,6.43 -2.06,9.21 -1.34,2.78 -3.7,4.94 -7.1,6.54 -2.82,1.34 -6.27,2.58 -10.29,3.61 -4.06,1.08 -7.56,1.7 -10.49,1.91 v 11.17 l 92.85,-0.05 -0.01,-11.17 c -2.98,-0.1 -6.54,-0.56 -10.81,-1.38 -4.27,-0.88 -7.46,-1.64 -9.52,-2.37 -3.6,-1.28 -5.97,-3.39 -7.21,-6.32 -1.18,-2.93 -1.8,-6.13 -1.8,-9.62 l -0.09,-161.2 c 0,-3.66 0.62,-6.75 1.8,-9.27 1.23,-2.52 3.6,-4.73 7.2,-6.64 1.75,-0.93 4.94,-1.91 9.52,-2.83 4.58,-0.94 8.18,-1.5 10.81,-1.61 v -11.17"
       style="fill:#ffffff;fill-opacity:1;fill-rule:nonzero;stroke:none"
       id="path559" />
    <path
       d="m 4288.02,1819.63 c 5.88,9.57 10.15,20.37 12.83,32.47 2.69,12.09 4.03,25.58 4.04,40.5 0.01,15.34 -1.48,29.39 -4.46,42.21 -2.97,12.82 -7.39,23.73 -13.15,32.79 -5.76,8.91 -13.02,15.91 -21.71,20.9 -8.75,5 -18.73,7.48 -29.95,7.49 -12.61,0 -23.32,-2.88 -32.17,-8.63 -8.81,-5.82 -16.02,-13.53 -21.58,-23.15 -5.25,-9.26 -9.17,-20.07 -11.75,-32.47 -2.58,-12.41 -3.87,-25.43 -3.88,-39.07 -0.01,-15.13 1.32,-28.82 4.04,-40.97 2.78,-12.2 7.04,-23 12.96,-32.48 5.65,-9.27 12.8,-16.48 21.39,-21.68 8.6,-5.2 18.89,-7.83 30.88,-7.84 11.22,0 21.36,2.62 30.42,7.86 9.01,5.3 16.37,12.6 22.09,22.07 z m 23.56,158.51 c 9.87,-10.3 17.59,-22.71 23.14,-37.28 5.55,-14.56 8.32,-30.62 8.31,-48.28 -0.01,-17.75 -2.85,-33.91 -8.52,-48.37 -5.72,-14.51 -13.6,-26.86 -23.69,-37.05 -9.74,-10.08 -21.11,-17.84 -34.03,-23.29 -12.92,-5.45 -26.67,-8.17 -41.29,-8.17 -15.54,0.01 -29.89,2.95 -43.07,8.78 -13.23,5.82 -24.49,13.96 -33.95,24.36 -9.47,10.19 -16.87,22.55 -22.27,37.12 -5.45,14.57 -8.12,30.11 -8.11,46.73 0.01,18.17 2.85,34.38 8.52,48.58 5.67,14.26 13.55,26.56 23.48,36.95 9.89,10.28 21.37,18.16 34.45,23.6 13.13,5.45 26.77,8.22 41.08,8.22 14.82,-0.01 28.76,-2.85 41.88,-8.42 13.18,-5.56 24.5,-13.39 34.07,-23.48"
       style="fill:#ffffff;fill-opacity:1;fill-rule:nonzero;stroke:none"
       id="path561" />
    <path
       d="m 4490.67,1847.42 c 0.01,13.23 -4.46,24.09 -13.31,32.64 -8.84,8.5 -21.55,12.78 -38.02,12.78 -6.75,0.01 -12.41,-0.09 -17.04,-0.24 -4.63,-0.16 -8.08,-0.26 -10.4,-0.36 l -0.04,-78.8 c 0,-6.64 2.67,-11.63 8.02,-14.98 5.35,-3.4 12.82,-5.05 22.39,-5.05 15.65,-0.01 27.64,4.56 35.93,13.67 8.29,9.15 12.47,22.59 12.47,40.34 z m -21.83,71.4 c 3.86,4.53 6.54,9.46 8.09,14.87 1.49,5.35 2.27,11.73 2.27,19.09 0.01,12.3 -3.33,21.98 -10.02,28.99 -6.74,7 -17.29,10.5 -31.75,10.51 -3.35,0 -7.57,-0.1 -12.66,-0.25 -5.1,-0.15 -9.37,-0.3 -12.82,-0.41 l -0.04,-86 19.97,-0.01 c 8.59,-0.01 15.95,1.07 22.08,3.29 6.12,2.2 11.07,5.55 14.88,9.92 z m 38.07,-33.73 c 6.53,-4.43 11.93,-10.2 16.2,-17.36 4.32,-7.15 6.48,-15.8 6.47,-25.99 0,-10.4 -2.27,-19.46 -6.81,-27.12 -4.47,-7.67 -10.4,-13.94 -17.66,-18.88 -7,-4.83 -14.98,-8.53 -23.83,-11.05 -8.91,-2.52 -18.07,-3.75 -27.54,-3.74 l -105.87,0.05 0.01,11.17 c 2.52,0.2 6.17,0.66 11.01,1.33 4.84,0.72 8.29,1.49 10.4,2.47 3.24,1.43 5.56,3.44 6.95,5.91 1.34,2.47 2.06,5.61 2.07,9.52 l 0.07,160.73 c 0.01,3.56 -0.61,6.7 -1.79,9.43 -1.23,2.77 -3.6,4.94 -7.2,6.64 -3.14,1.59 -6.64,2.78 -10.55,3.61 -3.86,0.87 -7.16,1.39 -9.78,1.6 l 0.01,11.16 103.24,-0.05 c 7.98,0 15.6,-0.78 22.9,-2.32 7.31,-1.61 14.26,-4.39 20.89,-8.41 6.18,-3.65 11.27,-8.65 15.28,-14.98 3.96,-6.28 5.96,-13.95 5.96,-23.01 0,-7.88 -1.4,-14.87 -4.28,-21 -2.84,-6.17 -6.8,-11.42 -11.95,-15.84 -4.84,-4.22 -10.4,-7.77 -16.63,-10.65 -6.28,-2.88 -13.02,-5.09 -20.28,-6.68 v -1.39 c 6.43,-0.77 13.58,-2.38 21.51,-4.85 7.92,-2.47 15.02,-5.92 21.2,-10.3"
       style="fill:#ffffff;fill-opacity:1;fill-rule:nonzero;stroke:none"
       id="path563" />
    <path
       d="m 4649.32,1775.49 c -13.33,0.01 -26.1,2.64 -38.34,7.9 -12.25,5.25 -23.06,12.82 -32.52,22.71 -9.31,9.89 -16.77,21.98 -22.32,36.19 -5.55,14.26 -8.32,30.32 -8.31,48.18 0.01,17.91 2.74,34.12 8.21,48.68 5.46,14.52 13.03,27.07 22.66,37.56 9.58,10.4 20.86,18.47 33.88,24.13 13.03,5.65 26.92,8.48 41.75,8.47 11.01,-0.01 20.94,-1.35 29.89,-4.08 8.91,-2.74 17.4,-6.6 25.48,-11.54 l 6.49,10.7 12.6,-0.01 1.36,-79.72 h -12.92 c -1.7,7.78 -4.16,16.22 -7.56,25.33 -3.34,9.06 -7.24,16.78 -11.77,23.06 -5.04,7.16 -11.01,12.77 -17.95,16.79 -6.9,4.07 -14.82,6.08 -23.73,6.09 -10.19,0 -19.66,-2.26 -28.41,-6.79 -8.81,-4.47 -16.37,-11.15 -22.76,-20.01 -6.08,-8.48 -10.87,-19.34 -14.38,-32.46 -3.45,-13.13 -5.16,-27.79 -5.17,-44.01 0,-14.3 1.79,-27.38 5.39,-39.32 3.59,-11.94 8.79,-22.44 15.47,-31.51 6.74,-8.9 14.67,-15.91 23.87,-20.96 9.16,-5.05 19.4,-7.57 30.78,-7.58 8.49,0 16.31,1.33 23.42,4 7.15,2.68 13.33,6.22 18.58,10.65 5.26,4.58 9.89,9.83 13.86,15.74 4.01,5.86 7.26,12.3 9.79,19.19 l 11.78,-5.66 c -9.02,-22.18 -20.97,-37.98 -35.9,-47.49 -14.93,-9.52 -32.64,-14.24 -53.22,-14.23"
       style="fill:#ffffff;fill-opacity:1;fill-rule:nonzero;stroke:none"
       id="path565" />
    <path
       d="m 4961.99,1780.68 -61.56,0.04 c -4.32,12.19 -8.53,23.31 -12.59,33.35 -4.11,10.09 -8.33,19.82 -12.65,29.29 -7.04,15.91 -14.19,26.67 -21.34,32.23 -7.2,5.57 -16.88,8.35 -29.07,8.36 h -11.48 l -0.04,-71.64 c 0,-3.45 0.67,-6.59 1.95,-9.32 1.34,-2.73 3.71,-4.94 7.15,-6.64 1.7,-0.72 4.84,-1.6 9.42,-2.68 4.53,-1.03 8.34,-1.65 11.42,-1.76 v -11.16 l -92.85,0.04 0.01,11.17 c 2.41,0.21 5.97,0.56 10.55,0.97 4.63,0.41 7.92,1.03 9.78,1.85 3.14,1.39 5.45,3.4 6.84,6.07 1.45,2.67 2.17,5.92 2.17,9.72 l 0.09,161.36 c 0,3.55 -0.62,6.64 -1.8,9.27 -1.24,2.62 -3.6,4.79 -7.2,6.48 -2.84,1.34 -6.18,2.58 -10.09,3.61 -3.86,1.08 -7.31,1.7 -10.24,1.91 v 11.17 l 92.85,-0.05 v -11.17 c -2.99,-0.1 -6.64,-0.56 -11.07,-1.38 -4.37,-0.87 -7.67,-1.64 -9.78,-2.36 -3.55,-1.29 -5.97,-3.4 -7.21,-6.33 -1.29,-2.93 -1.91,-6.12 -1.91,-9.62 l -0.03,-76.59 14.66,-0.01 c 3.91,0 7.72,0.87 11.43,2.52 3.76,1.7 7.21,4.16 10.35,7.41 4.53,4.62 8.14,10.28 10.87,16.92 2.73,6.69 5.66,14.77 8.81,24.19 2.94,8.75 5.98,16.83 9.17,24.29 3.15,7.46 7.73,14.35 13.86,20.63 4.07,4.21 8.91,7.51 14.52,9.92 5.56,2.42 11.58,3.6 18.12,3.6 4.48,0 8.44,-0.52 11.78,-1.65 3.4,-1.09 6.23,-2.63 8.54,-4.64 2.06,-1.8 3.66,-3.91 4.68,-6.34 1.08,-2.41 1.59,-5.04 1.59,-7.87 0,-2.32 -0.36,-4.58 -1.03,-6.74 -0.67,-2.21 -1.65,-4.07 -2.94,-5.56 -1.44,-1.75 -3.09,-3.14 -4.83,-4.17 -1.81,-0.97 -4.33,-1.49 -7.57,-1.49 -3.5,0.01 -6.49,0.58 -9.06,1.76 -2.57,1.14 -4.83,2.73 -6.74,4.74 -1.85,2.01 -3.55,4.32 -5.09,7 -1.54,2.68 -2.98,5.41 -4.32,8.14 -2.93,-2.01 -5.46,-4.48 -7.52,-7.41 -2.01,-2.93 -3.86,-6.12 -5.41,-9.47 -1.59,-3.34 -2.99,-6.95 -4.17,-10.7 -1.24,-3.81 -2.63,-7.98 -4.23,-12.61 -1.24,-3.91 -2.73,-8.23 -4.38,-13.02 -1.7,-4.78 -3.66,-9.21 -5.87,-13.27 -2.32,-4.43 -5,-8.86 -8.09,-13.23 -3.09,-4.42 -6.8,-8.59 -11.12,-12.45 v -2.21 c 11.63,-3.25 21.35,-8.4 29.07,-15.56 7.71,-7.11 14.19,-16.27 19.44,-27.55 2.93,-6.43 6.16,-13.33 9.66,-20.74 3.55,-7.41 6.43,-13.75 8.74,-18.89 3.24,-7.05 6.43,-11.74 9.46,-14.11 3.04,-2.37 6.13,-3.81 9.27,-4.38 2.73,-0.42 5.71,-0.83 8.85,-1.19 3.14,-0.36 5.87,-0.67 8.18,-0.88 v -11.17"
       style="fill:#ffffff;fill-opacity:1;fill-rule:nonzero;stroke:none"
       id="path567" />
    <path
       d="m 5198.17,1780.57 -92.49,0.04 0.01,11.17 c 2.52,0.2 6.23,0.56 11.12,0.97 4.89,0.41 8.18,1.03 9.98,1.85 3.15,1.28 5.46,3.19 6.96,5.76 1.44,2.57 2.21,5.92 2.21,10.03 l 0.08,139.43 -108.21,-134.84 v -3.6 c 0,-3.66 0.61,-6.64 1.85,-8.91 1.18,-2.27 3.55,-4.32 7.15,-6.23 1.8,-0.93 5.09,-1.91 9.93,-2.84 4.84,-0.93 8.6,-1.49 11.32,-1.59 v -11.18 l -92.49,0.05 0.01,11.17 c 2.52,0.2 6.17,0.56 10.96,0.97 4.78,0.41 8.02,1.03 9.83,1.85 3.14,1.29 5.46,3.19 6.95,5.76 1.45,2.57 2.22,5.92 2.22,10.04 l 0.08,161.35 c 0,3.34 -0.72,6.43 -2.05,9.21 -1.39,2.78 -3.76,4.95 -7.1,6.54 -2.83,1.34 -6.28,2.58 -10.29,3.61 -4.07,1.08 -7.57,1.7 -10.5,1.91 v 11.17 l 92.49,-0.05 v -11.17 c -2.94,-0.1 -6.59,-0.56 -10.97,-1.38 -4.32,-0.88 -7.57,-1.64 -9.68,-2.36 -3.55,-1.29 -5.97,-3.4 -7.15,-6.33 -1.24,-2.93 -1.81,-6.13 -1.81,-9.62 l -0.07,-135.98 108.16,134.68 c 0,3.76 -0.67,6.9 -2.06,9.37 -1.34,2.48 -3.7,4.48 -7.1,6.08 -2.62,1.24 -6.23,2.42 -10.86,3.56 -4.63,1.08 -8.23,1.75 -10.86,1.96 l 0.01,11.17 92.49,-0.05 -0.01,-11.17 c -2.93,-0.1 -6.54,-0.56 -10.81,-1.38 -4.22,-0.88 -7.41,-1.64 -9.52,-2.37 -3.55,-1.28 -5.97,-3.39 -7.16,-6.32 -1.23,-2.94 -1.8,-6.12 -1.81,-9.62 l -0.07,-161.21 c -0.01,-3.65 0.56,-6.73 1.79,-9.26 1.18,-2.52 3.6,-4.74 7.15,-6.64 1.8,-0.93 4.99,-1.91 9.52,-2.84 4.58,-0.92 8.19,-1.5 10.81,-1.6 l -0.01,-11.16"
       style="fill:#ffffff;fill-opacity:1;fill-rule:nonzero;stroke:none"
       id="path569" />
    <path
       d="m 5373.3,2040.49 c -0.93,2.21 -2.06,5.15 -3.45,8.9 -1.33,3.71 -2.05,7.06 -2.05,9.99 0,5.46 1.76,9.42 5.31,11.83 3.5,2.42 7.31,3.6 11.43,3.6 4.63,0 8.38,-1.65 11.27,-5.05 2.88,-3.35 4.31,-7.67 4.31,-12.92 0,-3.45 -1.09,-7.51 -3.25,-12.14 -2.16,-4.58 -5.36,-8.59 -9.68,-11.94 -5.05,-3.91 -11.12,-7.04 -18.23,-9.36 -7.05,-2.36 -16.88,-3.54 -29.38,-3.53 -11.12,0 -20.59,1.24 -28.41,3.72 -7.83,2.47 -14.05,5.52 -18.68,9.22 -4.53,3.56 -7.82,7.52 -9.88,11.79 -2,4.32 -3.03,8.45 -3.03,12.3 0,5.25 1.45,9.58 4.33,12.92 2.89,3.4 6.59,5.04 11.12,5.04 4.17,0 8.03,-1.14 11.58,-3.45 3.5,-2.32 5.25,-6.34 5.25,-12 -0.01,-3.24 -0.62,-6.54 -1.86,-9.83 -1.29,-3.35 -2.48,-6.33 -3.66,-9.05 4.42,-4.23 9.67,-6.91 15.74,-8.14 6.13,-1.19 11.94,-1.82 17.5,-1.82 5.15,0 11.02,0.67 17.5,1.95 6.54,1.34 11.94,3.96 16.22,7.97 z m 80.57,-260.06 -92.49,0.05 v 11.17 c 2.53,0.2 6.23,0.56 11.12,0.97 4.89,0.41 8.18,1.03 9.99,1.85 3.14,1.28 5.45,3.19 6.95,5.76 1.44,2.57 2.22,5.92 2.22,10.03 l 0.07,139.43 -108.2,-134.84 -0.01,-3.61 c 0,-3.65 0.62,-6.63 1.85,-8.9 1.18,-2.26 3.55,-4.32 7.15,-6.23 1.8,-0.93 5.1,-1.91 9.93,-2.83 4.84,-0.93 8.6,-1.5 11.32,-1.61 v -11.17 l -92.49,0.05 0.01,11.17 c 2.52,0.2 6.18,0.56 10.96,0.97 4.79,0.41 8.03,1.03 9.83,1.85 3.14,1.28 5.46,3.19 6.95,5.76 1.45,2.57 2.22,5.92 2.22,10.04 l 0.08,161.35 c 0.01,3.34 -0.71,6.43 -2.05,9.21 -1.39,2.78 -3.75,4.94 -7.1,6.54 -2.83,1.34 -6.28,2.58 -10.29,3.61 -4.07,1.08 -7.56,1.7 -10.5,1.91 l 0.01,11.17 92.48,-0.05 v -11.17 c -2.93,-0.1 -6.59,-0.56 -10.96,-1.38 -4.33,-0.88 -7.57,-1.64 -9.68,-2.37 -3.55,-1.28 -5.97,-3.39 -7.16,-6.32 -1.24,-2.93 -1.8,-6.13 -1.81,-9.62 l -0.07,-135.98 108.16,134.68 c 0,3.76 -0.67,6.9 -2.06,9.37 -1.34,2.47 -3.7,4.48 -7.1,6.08 -2.62,1.24 -6.22,2.42 -10.86,3.56 -4.63,1.08 -8.23,1.75 -10.86,1.96 l 0.01,11.17 92.49,-0.05 -0.01,-11.17 c -2.93,-0.1 -6.53,-0.56 -10.81,-1.39 -4.21,-0.87 -7.41,-1.64 -9.52,-2.35 -3.55,-1.29 -5.97,-3.4 -7.16,-6.33 -1.23,-2.94 -1.8,-6.13 -1.8,-9.63 l -0.08,-161.19 c -0.01,-3.66 0.56,-6.75 1.79,-9.27 1.19,-2.52 3.61,-4.74 7.15,-6.64 1.81,-0.93 5,-1.91 9.53,-2.84 4.58,-0.93 8.18,-1.5 10.8,-1.6 v -11.17"
       style="fill:#ffffff;fill-opacity:1;fill-rule:nonzero;stroke:none"
       id="path571" />
    <path
       d="m 3061.33,1639.77 c -1.7,3.2 -4.22,6.7 -7.46,10.46 -3.24,3.81 -7.2,6.95 -11.83,9.47 -3.6,1.86 -7.72,3.4 -12.46,4.69 -4.68,1.24 -8.9,2.02 -12.6,2.27 v 14.16 l 119.05,-0.06 -0.01,-14.16 c -8.33,-0.36 -16.21,-1.33 -23.62,-2.76 -7.47,-1.44 -11.17,-3.86 -11.17,-7.15 0,-1.5 0.51,-3.4 1.59,-5.77 1.08,-2.42 1.85,-4.07 2.41,-4.99 5.3,-10.25 13.63,-26.41 24.94,-48.65 11.36,-22.19 27.05,-52.15 47.1,-89.84 7.57,16.31 15.82,34.74 24.68,55.16 8.91,20.48 16.03,37.1 21.33,50.02 5.57,13.95 8.97,23.2 10.16,27.78 1.18,4.58 1.8,7.93 1.8,10.04 0,2.63 -1.23,4.94 -3.75,6.85 -2.52,1.96 -5.82,3.55 -9.78,4.89 -4.01,1.19 -8.13,2.12 -12.4,2.79 -4.22,0.67 -8.69,1.24 -13.33,1.6 l 0.01,14.16 105.51,-0.06 -0.01,-14.15 c -3.45,-0.11 -7.77,-0.93 -13.02,-2.37 -5.25,-1.49 -9.73,-3.23 -13.44,-5.39 -4.53,-2.62 -8.13,-5.91 -10.86,-9.83 -2.73,-3.91 -5.77,-9.26 -9.07,-16.05 -10.35,-20.84 -23.08,-48.16 -38.18,-82.02 -15.09,-33.81 -26.69,-58.97 -34.78,-75.43 -8.14,-16.47 -15.97,-30.06 -23.54,-40.81 -7.57,-10.75 -15.19,-19.08 -22.92,-25.05 -7.82,-6.28 -15.03,-10.39 -21.57,-12.34 -6.59,-2 -13.74,-2.98 -21.41,-2.97 -10.65,0 -19.61,2.89 -26.91,8.76 -7.31,5.82 -10.91,12.67 -10.9,20.49 0,6.64 2.01,12.4 6.08,17.34 4.02,4.89 9.26,7.36 15.65,7.35 4.63,0 8.7,-1.08 12.25,-3.2 3.49,-2.11 6.37,-4.63 8.64,-7.56 2.26,-2.79 4.53,-6.19 6.79,-10.25 2.26,-4.07 4.11,-7.21 5.55,-9.47 9.99,2.77 18.28,8.17 24.92,16.19 6.64,7.98 13.18,17.6 19.52,28.87 -16.81,32.54 -35.07,67.49 -54.6,104.87 -19.59,37.32 -32.4,61.36 -38.36,72.12"
       style="fill:#ffffff;fill-opacity:1;fill-rule:nonzero;stroke:none"
       id="path573" />
    <path
       d="m 3515.04,1398.01 -92.84,0.05 v 11.17 c 2.52,0.2 6.18,0.56 10.96,0.97 4.79,0.41 8.09,1.02 9.83,1.84 3.2,1.29 5.52,3.19 6.96,5.77 1.49,2.57 2.21,5.91 2.21,10.03 l 0.05,79.57 -105.1,0.05 -0.04,-77.87 c 0,-3.65 0.61,-6.74 1.8,-9.26 1.23,-2.52 3.6,-4.74 7.15,-6.64 1.8,-0.93 4.99,-1.91 9.57,-2.84 4.53,-0.93 8.13,-1.5 10.75,-1.6 v -11.17 l -92.8,0.05 v 11.17 c 2.53,0.2 6.18,0.56 10.97,0.97 4.79,0.41 8.03,1.02 9.83,1.85 3.14,1.28 5.46,3.19 6.95,5.75 1.44,2.58 2.22,5.92 2.22,10.04 l 0.08,161.36 c 0,3.34 -0.71,6.43 -2.05,9.21 -1.39,2.78 -3.76,4.94 -7.1,6.54 -2.83,1.34 -6.28,2.58 -10.29,3.61 -4.07,1.08 -7.57,1.7 -10.5,1.91 l 0.01,11.16 92.79,-0.04 v -11.17 c -2.94,-0.1 -6.54,-0.56 -10.76,-1.38 -4.27,-0.88 -7.46,-1.65 -9.58,-2.37 -3.55,-1.28 -5.91,-3.39 -7.15,-6.33 -1.19,-2.93 -1.81,-6.12 -1.81,-9.62 l -0.04,-69.33 105.1,-0.05 0.04,67.78 c 0,3.35 -0.67,6.44 -2.05,9.22 -1.34,2.78 -3.71,4.94 -7.1,6.54 -2.84,1.34 -6.28,2.57 -10.3,3.6 -4.06,1.09 -7.56,1.71 -10.5,1.91 l 0.01,11.17 92.85,-0.04 -0.01,-11.17 c -2.98,-0.1 -6.54,-0.56 -10.81,-1.39 -4.27,-0.87 -7.46,-1.64 -9.52,-2.36 -3.6,-1.29 -5.97,-3.39 -7.21,-6.32 -1.18,-2.94 -1.8,-6.13 -1.8,-9.63 l -0.09,-161.19 c 0,-3.66 0.62,-6.75 1.8,-9.27 1.23,-2.53 3.6,-4.74 7.2,-6.65 1.75,-0.92 4.94,-1.9 9.52,-2.83 4.58,-0.93 8.18,-1.5 10.81,-1.6 l -0.01,-11.17"
       style="fill:#ffffff;fill-opacity:1;fill-rule:nonzero;stroke:none"
       id="path575" />
    <path
       d="m 3771.04,1397.88 -92.48,0.04 v 11.18 c 2.52,0.2 6.23,0.56 11.12,0.97 4.89,0.41 8.19,1.02 9.99,1.84 3.14,1.29 5.45,3.19 6.95,5.76 1.44,2.58 2.21,5.92 2.22,10.04 l 0.07,139.43 -108.21,-134.85 v -3.6 c 0,-3.65 0.62,-6.64 1.85,-8.9 1.19,-2.27 3.55,-4.33 7.15,-6.24 1.8,-0.92 5.09,-1.9 9.93,-2.83 4.84,-0.93 8.6,-1.5 11.33,-1.6 l -0.01,-11.17 -92.49,0.05 0.01,11.16 c 2.52,0.21 6.17,0.57 10.96,0.98 4.79,0.41 8.03,1.02 9.83,1.85 3.14,1.28 5.46,3.18 6.95,5.76 1.45,2.57 2.22,5.92 2.22,10.03 l 0.09,161.35 c 0,3.35 -0.72,6.44 -2.06,9.22 -1.39,2.78 -3.75,4.94 -7.1,6.54 -2.83,1.34 -6.28,2.57 -10.29,3.6 -4.07,1.09 -7.57,1.71 -10.5,1.91 v 11.18 l 92.49,-0.05 v -11.17 c -2.93,-0.1 -6.59,-0.57 -10.96,-1.39 -4.33,-0.87 -7.57,-1.64 -9.68,-2.36 -3.55,-1.28 -5.97,-3.39 -7.16,-6.32 -1.23,-2.94 -1.8,-6.13 -1.8,-9.63 l -0.08,-135.98 108.16,134.69 c 0,3.76 -0.67,6.9 -2.06,9.37 -1.33,2.47 -3.7,4.48 -7.1,6.08 -2.62,1.23 -6.22,2.42 -10.85,3.55 -4.64,1.09 -8.24,1.76 -10.86,1.97 v 11.16 l 92.49,-0.05 -0.01,-11.16 c -2.93,-0.11 -6.53,-0.56 -10.8,-1.39 -4.23,-0.87 -7.42,-1.64 -9.53,-2.36 -3.55,-1.29 -5.97,-3.39 -7.15,-6.33 -1.24,-2.93 -1.81,-6.12 -1.81,-9.62 l -0.08,-161.2 c -0.01,-3.65 0.56,-6.74 1.79,-9.26 1.19,-2.52 3.6,-4.74 7.15,-6.64 1.8,-0.93 4.99,-1.91 9.52,-2.84 4.58,-0.93 8.19,-1.5 10.81,-1.6 l -0.01,-11.17"
       style="fill:#ffffff;fill-opacity:1;fill-rule:nonzero;stroke:none"
       id="path577" />
    <path
       d="m 3936.86,1464.29 c 0.01,13.23 -4.47,24.09 -13.32,32.64 -8.84,8.49 -21.55,12.77 -38.02,12.78 -6.75,0.01 -12.41,-0.1 -17.04,-0.25 -4.63,-0.15 -8.08,-0.25 -10.4,-0.35 l -0.04,-78.8 c 0,-6.64 2.67,-11.63 8.02,-14.98 5.36,-3.4 12.82,-5.05 22.39,-5.06 15.65,0 27.64,4.57 35.93,13.67 8.29,9.16 12.47,22.59 12.48,40.35 z m -21.84,71.4 c 3.86,4.52 6.54,9.47 8.09,14.87 1.49,5.35 2.27,11.73 2.27,19.09 0.01,12.3 -3.33,21.98 -10.02,28.98 -6.74,7.01 -17.28,10.51 -31.75,10.52 -3.34,0 -7.57,-0.1 -12.66,-0.25 -5.1,-0.16 -9.37,-0.31 -12.82,-0.41 l -0.04,-86 19.97,-0.01 c 8.6,-0.01 15.95,1.07 22.08,3.28 6.13,2.21 11.07,5.55 14.88,9.93 z m 38.07,-33.73 c 6.53,-4.43 11.93,-10.2 16.2,-17.36 4.32,-7.15 6.48,-15.8 6.48,-25.99 -0.01,-10.4 -2.28,-19.46 -6.81,-27.12 -4.48,-7.67 -10.41,-13.94 -17.67,-18.88 -7,-4.84 -14.98,-8.54 -23.83,-11.05 -8.91,-2.52 -18.07,-3.75 -27.54,-3.75 l -105.87,0.05 0.01,11.18 c 2.52,0.2 6.17,0.66 11.01,1.32 4.84,0.72 8.29,1.49 10.4,2.47 3.24,1.44 5.56,3.45 6.95,5.92 1.34,2.47 2.06,5.61 2.07,9.52 l 0.08,160.73 c 0,3.55 -0.61,6.69 -1.8,9.42 -1.23,2.78 -3.6,4.94 -7.2,6.65 -3.14,1.59 -6.64,2.78 -10.55,3.61 -3.86,0.87 -7.15,1.39 -9.78,1.59 l 0.01,11.17 103.24,-0.05 c 7.98,0 15.6,-0.78 22.91,-2.33 7.3,-1.6 14.25,-4.38 20.89,-8.4 6.17,-3.65 11.26,-8.65 15.27,-14.98 3.96,-6.28 5.97,-13.95 5.96,-23.01 0,-7.88 -1.4,-14.88 -4.28,-21 -2.83,-6.17 -6.8,-11.42 -11.95,-15.85 -4.84,-4.21 -10.4,-7.76 -16.63,-10.64 -6.28,-2.88 -13.02,-5.09 -20.28,-6.68 v -1.39 c 6.43,-0.78 13.58,-2.37 21.51,-4.85 7.92,-2.48 15.02,-5.93 21.2,-10.3"
       style="fill:#ffffff;fill-opacity:1;fill-rule:nonzero;stroke:none"
       id="path579" />
    <path
       d="m 4185.5,1463.54 -4.3,-65.87 -185.65,0.09 0.01,11.17 c 3.19,0.2 7.36,0.67 12.6,1.33 5.25,0.72 8.71,1.39 10.25,2.16 3.4,1.54 5.71,3.6 7,6.12 1.34,2.52 2.01,5.71 2.01,9.62 l 0.08,160.74 c 0,3.45 -0.56,6.54 -1.74,9.21 -1.13,2.68 -3.55,4.84 -7.25,6.54 -2.84,1.34 -6.64,2.58 -11.43,3.61 -4.79,1.08 -8.59,1.7 -11.42,1.91 v 11.17 l 173.04,-0.09 -0.03,-53.88 h -11.84 c -2.05,7.98 -6.63,16.48 -13.57,25.49 -7,8.96 -13.63,13.9 -19.96,14.72 -3.25,0.42 -7.16,0.73 -11.63,0.94 -4.53,0.26 -9.68,0.36 -15.44,0.37 l -35.16,0.02 -0.04,-88.89 25.22,-0.02 c 8.08,0 13.99,0.77 17.71,2.26 3.75,1.54 6.99,4.06 9.88,7.67 2.26,3.03 4.28,7.1 5.87,12.19 1.65,5.09 2.74,9.88 3.25,14.41 l 11.84,-0.01 -0.04,-87.6 -11.84,0.01 c -0.41,5.04 -1.54,10.35 -3.39,16.01 -1.8,5.61 -3.75,9.68 -5.71,12.2 -3.29,4.12 -6.99,6.79 -11.11,8.03 -4.17,1.29 -9.68,1.91 -16.47,1.91 l -25.22,0.02 -0.03,-67.01 c -0.01,-6.74 0.46,-12.04 1.38,-15.91 0.97,-3.86 2.83,-6.84 5.55,-8.8 2.73,-2.01 6.44,-3.3 11.17,-3.87 4.73,-0.56 11.42,-0.88 20.17,-0.88 3.45,0 8.03,-0.01 13.69,-0.01 5.66,0 10.45,0.2 14.36,0.61 3.97,0.41 8.13,1.18 12.36,2.31 4.27,1.08 7.31,2.57 9.06,4.48 4.84,5.04 9.94,12.65 15.24,22.89 5.31,10.24 8.71,17.8 10.16,22.64 l 11.37,-0.01"
       style="fill:#ffffff;fill-opacity:1;fill-rule:nonzero;stroke:none"
       id="path581" />
    <path
       d="m 4332.72,1527.91 c 3.6,5.04 5.98,10.24 7.11,15.7 1.14,5.4 1.76,10.24 1.76,14.56 0,5.97 -0.72,12.1 -2.16,18.27 -1.38,6.18 -3.85,11.59 -7.3,16.22 -3.65,4.94 -8.48,8.8 -14.5,11.54 -5.97,2.73 -13.44,4.07 -22.34,4.08 h -22.23 l -0.05,-98.76 16.06,-0.01 c 11.37,-0.01 20.58,1.74 27.69,5.23 7.05,3.55 12.41,7.92 15.96,13.17 z m 47.93,38.11 c 0,-11.68 -2.27,-21.97 -6.86,-30.98 -4.58,-8.95 -10.91,-16.41 -19,-22.27 -7.98,-5.86 -16.78,-10.18 -26.3,-12.9 -9.58,-2.73 -19.72,-4.11 -30.42,-4.1 l -25.07,0.01 -0.04,-67.73 c 0,-3.71 0.62,-6.9 1.8,-9.68 1.24,-2.79 3.71,-4.95 7.51,-6.39 1.86,-0.77 5.2,-1.44 9.99,-2.06 4.78,-0.62 9.16,-1.03 13.17,-1.14 l -0.01,-11.17 -95.98,0.05 v 11.17 c 2.53,0.2 6.18,0.61 10.97,1.12 4.79,0.52 8.13,1.18 9.99,2.06 3.14,1.33 5.45,3.34 6.84,5.96 1.44,2.63 2.16,5.97 2.17,10.09 l 0.08,161.35 c 0,3.66 -0.51,7 -1.59,9.94 -1.03,2.93 -3.5,5.15 -7.41,6.64 -3.96,1.34 -7.92,2.32 -11.89,2.89 -3.91,0.57 -7.31,0.98 -10.13,1.19 v 11.16 l 102.12,-0.04 c 20.79,-0.02 37.67,-5.02 50.63,-15.06 12.96,-10.04 19.44,-23.43 19.43,-40.11"
       style="fill:#ffffff;fill-opacity:1;fill-rule:nonzero;stroke:none"
       id="path583" />
    <path
       d="m 4496.63,1392.16 c -13.33,0.01 -26.1,2.64 -38.34,7.89 -12.25,5.26 -23.06,12.83 -32.52,22.72 -9.31,9.89 -16.77,21.98 -22.32,36.19 -5.55,14.26 -8.32,30.32 -8.31,48.18 0.01,17.91 2.75,34.12 8.21,48.68 5.46,14.52 13.03,27.07 22.67,37.56 9.57,10.39 20.85,18.47 33.87,24.12 13.03,5.66 26.92,8.49 41.75,8.48 11.01,-0.01 20.94,-1.35 29.9,-4.09 8.9,-2.73 17.39,-6.59 25.47,-11.54 l 6.49,10.7 h 12.61 l 1.35,-79.73 -12.92,0.01 c -1.7,7.77 -4.16,16.21 -7.55,25.32 -3.35,9.07 -7.25,16.79 -11.78,23.07 -5.04,7.15 -11.01,12.77 -17.95,16.79 -6.9,4.06 -14.82,6.08 -23.72,6.08 -10.2,0.01 -19.67,-2.25 -28.42,-6.78 -8.8,-4.47 -16.37,-11.16 -22.76,-20.01 -6.08,-8.49 -10.87,-19.34 -14.38,-32.47 -3.45,-13.12 -5.16,-27.78 -5.16,-44 -0.01,-14.31 1.78,-27.38 5.38,-39.32 3.6,-11.94 8.79,-22.45 15.48,-31.51 6.73,-8.91 14.65,-15.91 23.86,-20.96 9.16,-5.05 19.4,-7.57 30.78,-7.58 8.49,-0.01 16.31,1.33 23.42,4 7.16,2.67 13.33,6.22 18.58,10.65 5.26,4.58 9.89,9.82 13.85,15.74 4.02,5.86 7.27,12.3 9.79,19.19 l 11.79,-5.66 c -9.02,-22.18 -20.97,-37.98 -35.9,-47.49 -14.93,-9.52 -32.64,-14.24 -53.22,-14.23"
       style="fill:#ffffff;fill-opacity:1;fill-rule:nonzero;stroke:none"
       id="path585" />
    <path
       d="m 4829.94,1397.34 -92.49,0.05 0.01,11.17 c 2.52,0.2 6.22,0.56 11.11,0.97 4.89,0.41 8.18,1.03 9.99,1.85 3.14,1.28 5.45,3.18 6.95,5.76 1.44,2.57 2.21,5.92 2.22,10.03 l 0.07,139.43 -108.21,-134.84 v -3.61 c 0,-3.65 0.62,-6.63 1.85,-8.9 1.18,-2.26 3.55,-4.32 7.15,-6.23 1.81,-0.93 5.1,-1.91 9.94,-2.84 4.83,-0.93 8.59,-1.49 11.32,-1.6 l -0.01,-11.17 -92.49,0.05 0.01,11.17 c 2.52,0.2 6.18,0.56 10.96,0.97 4.79,0.41 8.03,1.02 9.83,1.85 3.14,1.28 5.46,3.19 6.95,5.76 1.45,2.57 2.22,5.92 2.22,10.03 l 0.08,161.36 c 0.01,3.34 -0.71,6.43 -2.05,9.21 -1.39,2.78 -3.75,4.94 -7.1,6.54 -2.83,1.34 -6.28,2.58 -10.29,3.61 -4.06,1.08 -7.56,1.7 -10.5,1.91 l 0.01,11.17 92.49,-0.05 -0.01,-11.17 c -2.93,-0.1 -6.59,-0.56 -10.97,-1.38 -4.32,-0.88 -7.56,-1.64 -9.67,-2.37 -3.55,-1.28 -5.98,-3.39 -7.16,-6.32 -1.24,-2.93 -1.8,-6.13 -1.8,-9.62 l -0.08,-135.99 108.16,134.69 c 0,3.76 -0.67,6.9 -2.06,9.37 -1.34,2.47 -3.7,4.48 -7.1,6.08 -2.62,1.24 -6.22,2.42 -10.85,3.56 -4.64,1.08 -8.24,1.75 -10.86,1.96 v 11.17 l 92.49,-0.05 -0.01,-11.17 c -2.93,-0.1 -6.53,-0.56 -10.8,-1.39 -4.23,-0.87 -7.41,-1.64 -9.53,-2.36 -3.55,-1.28 -5.97,-3.39 -7.15,-6.32 -1.24,-2.94 -1.81,-6.13 -1.81,-9.63 l -0.08,-161.19 c -0.01,-3.66 0.56,-6.75 1.8,-9.27 1.18,-2.52 3.59,-4.74 7.14,-6.64 1.81,-0.93 4.99,-1.91 9.53,-2.84 4.58,-0.93 8.18,-1.5 10.8,-1.6 v -11.17"
       style="fill:#ffffff;fill-opacity:1;fill-rule:nonzero;stroke:none"
       id="path587" />
    <path
       d="m 5039.9,1560.18 -10.86,0.01 c -0.92,3.76 -2.67,8.24 -5.14,13.49 -2.46,5.2 -5.24,10.09 -8.28,14.72 -3.13,4.84 -6.58,9.06 -10.34,12.67 -3.75,3.66 -7.36,5.72 -10.8,6.23 -3.29,0.41 -7.36,0.73 -12.3,0.98 -4.99,0.21 -9.57,0.32 -13.74,0.32 l -9.17,0.01 -0.09,-178.86 c 0,-3.5 0.72,-6.64 2.16,-9.57 1.49,-2.89 4.07,-5.1 7.77,-6.69 1.85,-0.73 5.81,-1.71 11.89,-3 6.02,-1.23 10.7,-1.96 14.1,-2.06 l -0.01,-11.17 -105.61,0.05 v 11.17 c 2.94,0.21 7.47,0.67 13.49,1.28 6.02,0.61 10.24,1.39 12.56,2.36 3.45,1.34 5.97,3.34 7.62,5.92 1.65,2.57 2.42,5.97 2.43,10.29 l 0.08,180.29 -9.1,0.01 c -3.24,0 -7.31,-0.1 -12.15,-0.25 -4.84,-0.15 -9.47,-0.52 -13.84,-1.03 -3.5,-0.41 -7.11,-2.46 -10.82,-6.22 -3.71,-3.7 -7.16,-7.92 -10.35,-12.65 -3.14,-4.74 -5.92,-9.78 -8.35,-15.08 -2.42,-5.3 -4.06,-9.68 -5.04,-13.12 h -11.02 l 0.03,60.63 194.91,-0.1 -0.03,-60.63"
       style="fill:#ffffff;fill-opacity:1;fill-rule:nonzero;stroke:none"
       id="path589" />
    <path
       d="m 5250.85,1463.02 -4.3,-65.88 -185.65,0.09 0.01,11.17 c 3.19,0.21 7.36,0.67 12.61,1.33 5.25,0.72 8.7,1.39 10.24,2.16 3.4,1.54 5.72,3.6 7.01,6.12 1.34,2.52 2.01,5.71 2.01,9.63 l 0.08,160.73 c 0,3.45 -0.56,6.54 -1.74,9.21 -1.13,2.68 -3.55,4.84 -7.26,6.54 -2.82,1.34 -6.63,2.58 -11.42,3.61 -4.79,1.08 -8.6,1.7 -11.42,1.91 v 11.17 l 173.04,-0.09 -0.03,-53.89 -11.84,0.01 c -2.05,7.98 -6.63,16.47 -13.58,25.48 -6.99,8.96 -13.62,13.9 -19.96,14.73 -3.24,0.42 -7.15,0.73 -11.63,0.94 -4.52,0.26 -9.67,0.36 -15.44,0.36 l -35.15,0.02 -0.05,-88.88 25.22,-0.01 c 8.08,-0.01 14.01,0.76 17.71,2.25 3.76,1.54 7,4.06 9.88,7.66 2.27,3.04 4.28,7.1 5.88,12.2 1.65,5.09 2.73,9.88 3.25,14.4 h 11.84 l -0.05,-87.6 -11.84,0.01 c -0.4,5.04 -1.54,10.34 -3.39,16.01 -1.79,5.61 -3.75,9.68 -5.7,12.2 -3.29,4.12 -7,6.8 -11.11,8.03 -4.17,1.29 -9.68,1.91 -16.47,1.92 l -25.22,0.01 -0.04,-67.01 c 0,-6.74 0.46,-12.05 1.38,-15.91 0.98,-3.86 2.83,-6.84 5.56,-8.8 2.73,-2.01 6.43,-3.3 11.16,-3.86 4.74,-0.58 11.43,-0.89 20.18,-0.89 3.45,0 8.03,-0.01 13.69,-0.01 5.66,0 10.45,0.2 14.36,0.61 3.96,0.41 8.14,1.18 12.35,2.31 4.28,1.08 7.31,2.57 9.06,4.47 4.85,5.04 9.94,12.66 15.25,22.9 5.31,10.24 8.71,17.8 10.15,22.64 h 11.37"
       style="fill:#ffffff;fill-opacity:1;fill-rule:nonzero;stroke:none"
       id="path591" />
    <path
       d="m 5456.1,1559.98 -10.86,0.01 c -0.92,3.75 -2.67,8.24 -5.14,13.49 -2.47,5.2 -5.24,10.08 -8.28,14.72 -3.13,4.84 -6.58,9.06 -10.34,12.66 -3.75,3.66 -7.35,5.72 -10.8,6.24 -3.3,0.41 -7.36,0.72 -12.3,0.98 -4.99,0.21 -9.58,0.32 -13.74,0.32 h -9.17 l -0.08,-178.85 c -0.01,-3.5 0.71,-6.64 2.15,-9.57 1.49,-2.89 4.07,-5.1 7.77,-6.7 1.85,-0.72 5.81,-1.7 11.89,-2.99 6.02,-1.24 10.7,-1.96 14.1,-2.06 l -0.01,-11.17 -105.61,0.05 v 11.17 c 2.94,0.21 7.47,0.66 13.49,1.28 6.02,0.61 10.24,1.39 12.56,2.36 3.45,1.34 5.97,3.34 7.62,5.92 1.65,2.57 2.42,5.97 2.42,10.29 l 0.1,180.29 -9.11,0.01 c -3.24,0 -7.31,-0.11 -12.15,-0.26 -4.84,-0.15 -9.47,-0.51 -13.84,-1.02 -3.5,-0.41 -7.11,-2.46 -10.82,-6.22 -3.7,-3.7 -7.16,-7.92 -10.35,-12.65 -3.14,-4.74 -5.92,-9.78 -8.34,-15.08 -2.43,-5.3 -4.08,-9.68 -5.05,-13.12 h -11.02 l 0.04,60.63 194.9,-0.1 -0.03,-60.63"
       style="fill:#ffffff;fill-opacity:1;fill-rule:nonzero;stroke:none"
       id="path593" />
  </g>
</svg>
